<svg width="165" height="165" viewBox="0 0 165 165" fill="none" xmlns="http://www.w3.org/2000/svg">
<circle cx="81" cy="84" r="50" fill="#FFD35A"/>
<path opacity="0.9" d="M81 144.08C81 143.804 81.2239 143.58 81.5 143.58V143.58C81.7761 143.58 82 143.804 82 144.08V161.5C82 161.776 81.7761 162 81.5 162V162C81.2239 162 81 161.776 81 161.5V144.08Z" fill="#FFD35A" stroke="#FFD35A" stroke-width="6"/>
<path opacity="0.9" d="M81 4.36715C81 4.09101 81.2239 3.86715 81.5 3.86715V3.86715C81.7761 3.86715 82 4.091 82 4.36715V21.7871C82 22.0633 81.7761 22.2871 81.5 22.2871V22.2871C81.2239 22.2871 81 22.0633 81 21.7871V4.36715Z" fill="#FFD35A" stroke="#FFD35A" stroke-width="6"/>
<path opacity="0.9" d="M160.92 81C161.196 81 161.42 81.2239 161.42 81.5V81.5C161.42 81.7761 161.196 82 160.92 82H143.5C143.224 82 143 81.7761 143 81.5V81.5C143 81.2239 143.224 81 143.5 81H160.92Z" fill="#FFD35A" stroke="#FFD35A" stroke-width="6"/>
<path opacity="0.9" d="M20.92 82C21.1961 82 21.42 82.2239 21.42 82.5V82.5C21.42 82.7761 21.1961 83 20.92 83H3.5C3.22386 83 3 82.7761 3 82.5V82.5C3 82.2239 3.22386 82 3.5 82H20.92Z" fill="#FFD35A" stroke="#FFD35A" stroke-width="6"/>
<path opacity="0.9" d="M39.184 126.354C39.3793 126.158 39.6958 126.158 39.8911 126.354V126.354C40.0864 126.549 40.0864 126.865 39.8911 127.061L27.5751 139.377C27.3798 139.572 27.0632 139.572 26.868 139.377V139.377C26.6727 139.181 26.6727 138.865 26.868 138.67L39.184 126.354Z" fill="#FFD35A" stroke="#FFD35A" stroke-width="6"/>
<path opacity="0.9" d="M128.354 126.061C128.158 125.865 128.158 125.549 128.354 125.354V125.354C128.549 125.158 128.865 125.158 129.061 125.354L141.377 137.67C141.572 137.865 141.572 138.181 141.377 138.377V138.377C141.181 138.572 140.865 138.572 140.67 138.377L128.354 126.061Z" fill="#FFD35A" stroke="#FFD35A" stroke-width="6"/>
<path opacity="0.9" d="M22.3536 27.0607C22.1583 26.8654 22.1583 26.5488 22.3536 26.3536V26.3536C22.5488 26.1583 22.8654 26.1583 23.0607 26.3536L35.3767 38.6696C35.572 38.8649 35.572 39.1814 35.3767 39.3767V39.3767C35.1815 39.572 34.8649 39.572 34.6696 39.3767L22.3536 27.0607Z" fill="#FFD35A" stroke="#FFD35A" stroke-width="6"/>
<path opacity="0.9" d="M140.67 27.3535C140.865 27.1583 141.181 27.1583 141.377 27.3536V27.3536C141.572 27.5488 141.572 27.8654 141.377 28.0607L129.061 40.3767C128.865 40.572 128.549 40.572 128.354 40.3767V40.3767C128.158 40.1814 128.158 39.8649 128.354 39.6696L140.67 27.3535Z" fill="#FFD35A" stroke="#FFD35A" stroke-width="6"/>
</svg>
