<svg width="335" height="234" viewBox="0 0 335 234" fill="none" xmlns="http://www.w3.org/2000/svg">
<g filter="url(#filter0_d_21_35)">
<path d="M143 0C167.765 0 189.138 13.5838 199.071 33.2207C202.259 32.4235 205.583 32 209 32C227.384 32 243.071 44.2091 249.221 61.3818C253.036 59.8441 257.175 59 261.5 59C278.174 59 292.085 71.5143 295.3 88.1494C296.353 88.0513 297.42 88 298.5 88C316.449 88 331 101.879 331 119C331 136.121 316.449 150 298.5 150C297.659 150 296.825 149.969 296 149.909V150H41V149.987C40.6678 149.995 40.3344 150 40 150C20.1177 150 4 136.121 4 119C4 104.399 15.7225 92.158 31.5049 88.8701C34.9652 64.6331 55.8064 46 81 46C81.4431 46 81.8849 46.0061 82.3252 46.0176C88.2267 19.7344 113.15 0 143 0Z" fill="url(#paint0_linear_21_35)"/>
</g>
<g filter="url(#filter1_d_21_35)">
<path d="M69 192.156C69 199.25 62.732 205 55 205C47.268 205 41 199.25 41 192.156C41 185.062 56.12 163 56.12 163C56.12 163 69 185.062 69 192.156Z" fill="url(#paint1_linear_21_35)"/>
</g>
<g filter="url(#filter2_d_21_35)">
<path d="M123 213.156C123 220.25 116.732 226 109 226C101.268 226 95 220.25 95 213.156C95 206.062 110.12 184 110.12 184C110.12 184 123 206.062 123 213.156Z" fill="url(#paint2_linear_21_35)"/>
</g>
<g filter="url(#filter3_d_21_35)">
<path d="M177 192.156C177 199.25 170.732 205 163 205C155.268 205 149 199.25 149 192.156C149 185.062 164.12 163 164.12 163C164.12 163 177 185.062 177 192.156Z" fill="url(#paint3_linear_21_35)"/>
</g>
<g filter="url(#filter4_d_21_35)">
<path d="M235 213.156C235 220.25 228.732 226 221 226C213.268 226 207 220.25 207 213.156C207 206.062 222.12 184 222.12 184C222.12 184 235 206.062 235 213.156Z" fill="url(#paint4_linear_21_35)"/>
</g>
<g filter="url(#filter5_d_21_35)">
<path d="M293 192.156C293 199.25 286.732 205 279 205C271.268 205 265 199.25 265 192.156C265 185.062 280.12 163 280.12 163C280.12 163 293 185.062 293 192.156Z" fill="url(#paint5_linear_21_35)"/>
</g>
<defs>
<filter id="filter0_d_21_35" x="0" y="0" width="335" height="158" filterUnits="userSpaceOnUse" color-interpolation-filters="sRGB">
<feFlood flood-opacity="0" result="BackgroundImageFix"/>
<feColorMatrix in="SourceAlpha" type="matrix" values="0 0 0 0 0 0 0 0 0 0 0 0 0 0 0 0 0 0 127 0" result="hardAlpha"/>
<feOffset dy="4"/>
<feGaussianBlur stdDeviation="2"/>
<feComposite in2="hardAlpha" operator="out"/>
<feColorMatrix type="matrix" values="0 0 0 0 0 0 0 0 0 0 0 0 0 0 0 0 0 0 0.25 0"/>
<feBlend mode="normal" in2="BackgroundImageFix" result="effect1_dropShadow_21_35"/>
<feBlend mode="normal" in="SourceGraphic" in2="effect1_dropShadow_21_35" result="shape"/>
</filter>
<filter id="filter1_d_21_35" x="37" y="163" width="36" height="50" filterUnits="userSpaceOnUse" color-interpolation-filters="sRGB">
<feFlood flood-opacity="0" result="BackgroundImageFix"/>
<feColorMatrix in="SourceAlpha" type="matrix" values="0 0 0 0 0 0 0 0 0 0 0 0 0 0 0 0 0 0 127 0" result="hardAlpha"/>
<feOffset dy="4"/>
<feGaussianBlur stdDeviation="2"/>
<feComposite in2="hardAlpha" operator="out"/>
<feColorMatrix type="matrix" values="0 0 0 0 0 0 0 0 0 0 0 0 0 0 0 0 0 0 0.25 0"/>
<feBlend mode="normal" in2="BackgroundImageFix" result="effect1_dropShadow_21_35"/>
<feBlend mode="normal" in="SourceGraphic" in2="effect1_dropShadow_21_35" result="shape"/>
</filter>
<filter id="filter2_d_21_35" x="91" y="184" width="36" height="50" filterUnits="userSpaceOnUse" color-interpolation-filters="sRGB">
<feFlood flood-opacity="0" result="BackgroundImageFix"/>
<feColorMatrix in="SourceAlpha" type="matrix" values="0 0 0 0 0 0 0 0 0 0 0 0 0 0 0 0 0 0 127 0" result="hardAlpha"/>
<feOffset dy="4"/>
<feGaussianBlur stdDeviation="2"/>
<feComposite in2="hardAlpha" operator="out"/>
<feColorMatrix type="matrix" values="0 0 0 0 0 0 0 0 0 0 0 0 0 0 0 0 0 0 0.25 0"/>
<feBlend mode="normal" in2="BackgroundImageFix" result="effect1_dropShadow_21_35"/>
<feBlend mode="normal" in="SourceGraphic" in2="effect1_dropShadow_21_35" result="shape"/>
</filter>
<filter id="filter3_d_21_35" x="145" y="163" width="36" height="50" filterUnits="userSpaceOnUse" color-interpolation-filters="sRGB">
<feFlood flood-opacity="0" result="BackgroundImageFix"/>
<feColorMatrix in="SourceAlpha" type="matrix" values="0 0 0 0 0 0 0 0 0 0 0 0 0 0 0 0 0 0 127 0" result="hardAlpha"/>
<feOffset dy="4"/>
<feGaussianBlur stdDeviation="2"/>
<feComposite in2="hardAlpha" operator="out"/>
<feColorMatrix type="matrix" values="0 0 0 0 0 0 0 0 0 0 0 0 0 0 0 0 0 0 0.25 0"/>
<feBlend mode="normal" in2="BackgroundImageFix" result="effect1_dropShadow_21_35"/>
<feBlend mode="normal" in="SourceGraphic" in2="effect1_dropShadow_21_35" result="shape"/>
</filter>
<filter id="filter4_d_21_35" x="203" y="184" width="36" height="50" filterUnits="userSpaceOnUse" color-interpolation-filters="sRGB">
<feFlood flood-opacity="0" result="BackgroundImageFix"/>
<feColorMatrix in="SourceAlpha" type="matrix" values="0 0 0 0 0 0 0 0 0 0 0 0 0 0 0 0 0 0 127 0" result="hardAlpha"/>
<feOffset dy="4"/>
<feGaussianBlur stdDeviation="2"/>
<feComposite in2="hardAlpha" operator="out"/>
<feColorMatrix type="matrix" values="0 0 0 0 0 0 0 0 0 0 0 0 0 0 0 0 0 0 0.25 0"/>
<feBlend mode="normal" in2="BackgroundImageFix" result="effect1_dropShadow_21_35"/>
<feBlend mode="normal" in="SourceGraphic" in2="effect1_dropShadow_21_35" result="shape"/>
</filter>
<filter id="filter5_d_21_35" x="261" y="163" width="36" height="50" filterUnits="userSpaceOnUse" color-interpolation-filters="sRGB">
<feFlood flood-opacity="0" result="BackgroundImageFix"/>
<feColorMatrix in="SourceAlpha" type="matrix" values="0 0 0 0 0 0 0 0 0 0 0 0 0 0 0 0 0 0 127 0" result="hardAlpha"/>
<feOffset dy="4"/>
<feGaussianBlur stdDeviation="2"/>
<feComposite in2="hardAlpha" operator="out"/>
<feColorMatrix type="matrix" values="0 0 0 0 0 0 0 0 0 0 0 0 0 0 0 0 0 0 0.25 0"/>
<feBlend mode="normal" in2="BackgroundImageFix" result="effect1_dropShadow_21_35"/>
<feBlend mode="normal" in="SourceGraphic" in2="effect1_dropShadow_21_35" result="shape"/>
</filter>
<linearGradient id="paint0_linear_21_35" x1="167.5" y1="0" x2="167.5" y2="150" gradientUnits="userSpaceOnUse">
<stop stop-color="#B9CCD5"/>
<stop offset="1" stop-color="#647279"/>
</linearGradient>
<linearGradient id="paint1_linear_21_35" x1="113.642" y1="163" x2="113.642" y2="205" gradientUnits="userSpaceOnUse">
<stop offset="0.480769" stop-color="#8BC8E5"/>
<stop offset="1" stop-color="#508BA9"/>
</linearGradient>
<linearGradient id="paint2_linear_21_35" x1="167.642" y1="184" x2="167.642" y2="226" gradientUnits="userSpaceOnUse">
<stop offset="0.480769" stop-color="#8BC8E5"/>
<stop offset="1" stop-color="#508BA9"/>
</linearGradient>
<linearGradient id="paint3_linear_21_35" x1="221.642" y1="163" x2="221.642" y2="205" gradientUnits="userSpaceOnUse">
<stop offset="0.480769" stop-color="#8BC8E5"/>
<stop offset="1" stop-color="#508BA9"/>
</linearGradient>
<linearGradient id="paint4_linear_21_35" x1="279.642" y1="184" x2="279.642" y2="226" gradientUnits="userSpaceOnUse">
<stop offset="0.480769" stop-color="#8BC8E5"/>
<stop offset="1" stop-color="#508BA9"/>
</linearGradient>
<linearGradient id="paint5_linear_21_35" x1="337.642" y1="163" x2="337.642" y2="205" gradientUnits="userSpaceOnUse">
<stop offset="0.480769" stop-color="#8BC8E5"/>
<stop offset="1" stop-color="#508BA9"/>
</linearGradient>
</defs>
</svg>
