<svg width="335" height="186" viewBox="0 0 335 186" fill="none" xmlns="http://www.w3.org/2000/svg">
<g filter="url(#filter0_d_50_62)">
<path d="M143 0C167.765 0 189.138 13.5838 199.071 33.2207C202.259 32.4235 205.583 32 209 32C227.384 32 243.071 44.2091 249.221 61.3818C253.036 59.8441 257.175 59 261.5 59C278.174 59 292.085 71.5143 295.3 88.1494C296.353 88.0513 297.42 88 298.5 88C316.449 88 331 101.879 331 119C331 136.121 316.449 150 298.5 150C297.659 150 296.825 149.969 296 149.909V150H41V149.987C40.6678 149.995 40.3344 150 40 150C20.1177 150 4 136.121 4 119C4 104.399 15.7225 92.158 31.5049 88.8701C34.9652 64.6331 55.8064 46 81 46C81.4431 46 81.8849 46.0061 82.3252 46.0176C88.2267 19.7344 113.15 0 143 0Z" fill="url(#paint0_linear_50_62)"/>
</g>
<g filter="url(#filter1_f_50_62)">
<path d="M18 142.5H86M113.5 117.5H205M169.5 160.5H271.5M247 132H279.5M65.5 170.5H144" stroke="white" stroke-width="15" stroke-linecap="round"/>
</g>
<g filter="url(#filter2_d_50_62)">
<path d="M18 143H86M113.5 118H205M169.5 161H271.5M247 132.5H279.5M65.5 170.5H142.5" stroke="#ECEDED" stroke-width="15" stroke-linecap="round"/>
</g>
<defs>
<filter id="filter0_d_50_62" x="0" y="0" width="335" height="158" filterUnits="userSpaceOnUse" color-interpolation-filters="sRGB">
<feFlood flood-opacity="0" result="BackgroundImageFix"/>
<feColorMatrix in="SourceAlpha" type="matrix" values="0 0 0 0 0 0 0 0 0 0 0 0 0 0 0 0 0 0 127 0" result="hardAlpha"/>
<feOffset dy="4"/>
<feGaussianBlur stdDeviation="2"/>
<feComposite in2="hardAlpha" operator="out"/>
<feColorMatrix type="matrix" values="0 0 0 0 0 0 0 0 0 0 0 0 0 0 0 0 0 0 0.25 0"/>
<feBlend mode="normal" in2="BackgroundImageFix" result="effect1_dropShadow_50_62"/>
<feBlend mode="normal" in="SourceGraphic" in2="effect1_dropShadow_50_62" result="shape"/>
</filter>
<filter id="filter1_f_50_62" x="6.5" y="106" width="284.5" height="76" filterUnits="userSpaceOnUse" color-interpolation-filters="sRGB">
<feFlood flood-opacity="0" result="BackgroundImageFix"/>
<feBlend mode="normal" in="SourceGraphic" in2="BackgroundImageFix" result="shape"/>
<feGaussianBlur stdDeviation="2" result="effect1_foregroundBlur_50_62"/>
</filter>
<filter id="filter2_d_50_62" x="6.5" y="110.5" width="284.5" height="75.5" filterUnits="userSpaceOnUse" color-interpolation-filters="sRGB">
<feFlood flood-opacity="0" result="BackgroundImageFix"/>
<feColorMatrix in="SourceAlpha" type="matrix" values="0 0 0 0 0 0 0 0 0 0 0 0 0 0 0 0 0 0 127 0" result="hardAlpha"/>
<feOffset dy="4"/>
<feGaussianBlur stdDeviation="2"/>
<feComposite in2="hardAlpha" operator="out"/>
<feColorMatrix type="matrix" values="0 0 0 0 0 0 0 0 0 0 0 0 0 0 0 0 0 0 0.25 0"/>
<feBlend mode="normal" in2="BackgroundImageFix" result="effect1_dropShadow_50_62"/>
<feBlend mode="normal" in="SourceGraphic" in2="effect1_dropShadow_50_62" result="shape"/>
</filter>
<linearGradient id="paint0_linear_50_62" x1="167.5" y1="0" x2="167.5" y2="150" gradientUnits="userSpaceOnUse">
<stop stop-color="#B9CCD5"/>
<stop offset="1" stop-color="#647279"/>
</linearGradient>
</defs>
</svg>
