<svg width="359" height="284" viewBox="0 0 359 284" fill="none" xmlns="http://www.w3.org/2000/svg">
<rect width="359" height="284" rx="20" fill="#242C38"/>
<g filter="url(#filter0_d_4_2)">
<path d="M165 31C165 31 165.466 37.439 167.161 40.1239C168.881 42.8494 173 43.5 173 43.5C173 43.5 168.881 44.1506 167.161 46.8761C165.466 49.561 165 56 165 56C165 56 164.534 49.561 162.839 46.8761C161.119 44.1506 157 43.5 157 43.5C157 43.5 161.119 42.8494 162.839 40.1239C164.534 37.439 165 31 165 31Z" fill="#FFE8A9"/>
</g>
<g filter="url(#filter1_d_4_2)">
<path d="M302 136C302 136 302.466 142.439 304.161 145.124C305.881 147.849 310 148.5 310 148.5C310 148.5 305.881 149.151 304.161 151.876C302.466 154.561 302 161 302 161C302 161 301.534 154.561 299.839 151.876C298.119 149.151 294 148.5 294 148.5C294 148.5 298.119 147.849 299.839 145.124C301.534 142.439 302 136 302 136Z" fill="#FFE8A9"/>
</g>
<g filter="url(#filter2_d_4_2)">
<path d="M18 169C18 169 18.466 175.439 20.1607 178.124C21.8811 180.849 26 181.5 26 181.5C26 181.5 21.8811 182.151 20.1607 184.876C18.466 187.561 18 194 18 194C18 194 17.534 187.561 15.8393 184.876C14.1189 182.151 10 181.5 10 181.5C10 181.5 14.1189 180.849 15.8393 178.124C17.534 175.439 18 169 18 169Z" fill="#FFE8A9"/>
</g>
<g filter="url(#filter3_d_4_2)">
<path d="M329 58C329 58 329.466 64.439 331.161 67.1239C332.881 69.8494 337 70.5 337 70.5C337 70.5 332.881 71.1506 331.161 73.8761C329.466 76.561 329 83 329 83C329 83 328.534 76.561 326.839 73.8761C325.119 71.1506 321 70.5 321 70.5C321 70.5 325.119 69.8494 326.839 67.1239C328.534 64.439 329 58 329 58Z" fill="#FFE8A9"/>
</g>
<g filter="url(#filter4_d_4_2)">
<path d="M34 62C34 62 34.466 68.439 36.1607 71.1239C37.8811 73.8494 42 74.5 42 74.5C42 74.5 37.8811 75.1506 36.1607 77.8761C34.466 80.561 34 87 34 87C34 87 33.534 80.561 31.8393 77.8761C30.1189 75.1506 26 74.5 26 74.5C26 74.5 30.1189 73.8494 31.8393 71.1239C33.534 68.439 34 62 34 62Z" fill="#FFE8A9"/>
</g>
<g filter="url(#filter5_d_4_2)">
<path d="M157 109C181.765 109 203.138 122.584 213.071 142.221C216.259 141.424 219.583 141 223 141C241.384 141 257.071 153.209 263.221 170.382C267.036 168.844 271.175 168 275.5 168C292.174 168 306.085 180.514 309.3 197.149C310.353 197.051 311.42 197 312.5 197C330.449 197 345 210.879 345 228C345 245.121 330.449 259 312.5 259C311.659 259 310.825 258.969 310 258.909V259H55V258.987C54.6678 258.995 54.3344 259 54 259C34.1177 259 18 245.121 18 228C18 213.399 29.7225 201.158 45.5049 197.87C48.9652 173.633 69.8064 155 95 155C95.4431 155 95.8849 155.006 96.3252 155.018C102.227 128.734 127.15 109 157 109Z" fill="url(#paint0_linear_4_2)"/>
</g>
<g filter="url(#filter6_df_4_2)">
<path d="M60 109.5C60 148.988 92.0284 181 131.537 181C139.344 181 146.858 179.75 153.891 177.44C154.831 177.131 154.755 175.793 153.802 175.528C123.631 167.134 101.492 139.471 101.492 106.64C101.492 77.2828 119.194 52.0579 144.512 41.047C145.419 40.6525 145.309 39.3166 144.335 39.1409C140.183 38.3914 135.906 38 131.537 38C92.0284 38 60 70.0116 60 109.5Z" fill="#FFE499"/>
</g>
<g filter="url(#filter7_d_4_2)">
<path d="M60 109.5C60 148.988 92.0284 181 131.537 181C139.344 181 146.858 179.75 153.891 177.44C154.831 177.131 154.755 175.793 153.802 175.528C123.631 167.134 101.492 139.471 101.492 106.64C101.492 77.2828 119.194 52.0579 144.512 41.047C145.419 40.6525 145.309 39.3166 144.335 39.1409C140.183 38.3914 135.906 38 131.537 38C92.0284 38 60 70.0116 60 109.5Z" fill="#FFD768"/>
</g>
<path d="M138.252 75.1045H142.896V93.9277H156.211V98H138.252V75.1045ZM159.141 89.3574C159.141 88.1172 159.39 86.9551 159.888 85.8711C160.396 84.7871 161.113 83.8398 162.041 83.0293C162.979 82.2188 164.106 81.5791 165.425 81.1104C166.753 80.6416 168.242 80.4072 169.893 80.4072C171.543 80.4072 173.027 80.6416 174.346 81.1104C175.674 81.5791 176.802 82.2188 177.729 83.0293C178.667 83.8398 179.385 84.7871 179.883 85.8711C180.391 86.9551 180.645 88.1172 180.645 89.3574C180.645 90.5977 180.391 91.7598 179.883 92.8438C179.385 93.9277 178.667 94.875 177.729 95.6855C176.802 96.4961 175.674 97.1357 174.346 97.6045C173.027 98.0732 171.543 98.3076 169.893 98.3076C168.242 98.3076 166.753 98.0732 165.425 97.6045C164.106 97.1357 162.979 96.4961 162.041 95.6855C161.113 94.875 160.396 93.9277 159.888 92.8438C159.39 91.7598 159.141 90.5977 159.141 89.3574ZM163.696 89.3574C163.696 90.0508 163.833 90.71 164.106 91.335C164.39 91.9502 164.795 92.4971 165.322 92.9756C165.859 93.4443 166.509 93.8203 167.271 94.1035C168.042 94.377 168.916 94.5137 169.893 94.5137C170.869 94.5137 171.738 94.377 172.5 94.1035C173.271 93.8203 173.921 93.4443 174.448 92.9756C174.985 92.4971 175.391 91.9502 175.664 91.335C175.947 90.71 176.089 90.0508 176.089 89.3574C176.089 88.6641 175.947 88.0049 175.664 87.3799C175.391 86.7549 174.985 86.208 174.448 85.7393C173.921 85.2607 173.271 84.8848 172.5 84.6113C171.738 84.3281 170.869 84.1865 169.893 84.1865C168.916 84.1865 168.042 84.3281 167.271 84.6113C166.509 84.8848 165.859 85.2607 165.322 85.7393C164.795 86.208 164.39 86.7549 164.106 87.3799C163.833 88.0049 163.696 88.6641 163.696 89.3574ZM184.204 92.5508C184.204 91.7207 184.385 90.9639 184.746 90.2803C185.107 89.5967 185.649 89.0107 186.372 88.5225C187.095 88.0244 187.993 87.6436 189.067 87.3799C190.151 87.1064 191.411 86.9697 192.847 86.9697C193.911 86.9697 195.029 87.0479 196.201 87.2041C197.383 87.3604 198.599 87.5996 199.849 87.9219C199.8 87.375 199.634 86.8721 199.351 86.4131C199.067 85.9443 198.672 85.5439 198.164 85.2119C197.666 84.8701 197.061 84.6064 196.348 84.4209C195.645 84.2354 194.844 84.1426 193.945 84.1426C193.457 84.1426 192.92 84.1719 192.334 84.2305C191.748 84.2891 191.143 84.377 190.518 84.4941C189.893 84.6113 189.272 84.7578 188.657 84.9336C188.052 85.1094 187.485 85.3193 186.958 85.5635L185.64 82.0039C186.294 81.7695 186.992 81.5547 187.734 81.3594C188.486 81.1641 189.253 80.998 190.034 80.8613C190.815 80.7148 191.597 80.6025 192.378 80.5244C193.159 80.4463 193.916 80.4072 194.648 80.4072C197.881 80.4072 200.283 81.2324 201.855 82.8828C203.428 84.5332 204.214 87.0625 204.214 90.4707V98H199.878V96.374C199.429 96.6377 198.936 96.8867 198.398 97.1211C197.871 97.3555 197.295 97.5605 196.67 97.7363C196.045 97.9121 195.371 98.0488 194.648 98.1465C193.936 98.2539 193.179 98.3076 192.378 98.3076C191.03 98.3076 189.844 98.1611 188.818 97.8682C187.803 97.5752 186.953 97.1699 186.27 96.6523C185.586 96.1348 185.068 95.5293 184.717 94.8359C184.375 94.1328 184.204 93.3711 184.204 92.5508ZM188.774 92.4043C188.774 92.6875 188.848 92.9609 188.994 93.2246C189.141 93.4785 189.375 93.708 189.697 93.9131C190.02 94.1084 190.43 94.2695 190.928 94.3965C191.436 94.5137 192.046 94.5723 192.759 94.5723C193.521 94.5723 194.258 94.5039 194.971 94.3672C195.684 94.2305 196.348 94.0498 196.963 93.8252C197.578 93.6006 198.135 93.3418 198.633 93.0488C199.131 92.7559 199.546 92.4531 199.878 92.1406V91.3789C199.214 91.1934 198.555 91.0371 197.9 90.9102C197.256 90.7832 196.636 90.6855 196.04 90.6172C195.454 90.5391 194.897 90.4854 194.37 90.4561C193.853 90.4268 193.398 90.4121 193.008 90.4121C192.197 90.4121 191.523 90.4658 190.986 90.5732C190.449 90.6807 190.015 90.8271 189.683 91.0127C189.351 91.1885 189.116 91.3984 188.979 91.6426C188.843 91.8867 188.774 92.1406 188.774 92.4043ZM208.623 89.4307C208.623 88.0537 208.882 86.8135 209.399 85.71C209.917 84.5967 210.63 83.6494 211.538 82.8682C212.456 82.0771 213.54 81.4717 214.79 81.0518C216.05 80.6221 217.412 80.4072 218.877 80.4072C219.502 80.4072 220.117 80.4463 220.723 80.5244C221.338 80.6025 221.924 80.71 222.48 80.8467C223.047 80.9834 223.574 81.1494 224.062 81.3447C224.561 81.5303 225 81.7354 225.381 81.96V73.6982H229.717V98H225.381V96.374C225 96.6377 224.551 96.8867 224.033 97.1211C223.516 97.3555 222.959 97.5605 222.363 97.7363C221.768 97.9121 221.147 98.0488 220.503 98.1465C219.868 98.2539 219.238 98.3076 218.613 98.3076C217.148 98.3076 215.801 98.0928 214.57 97.6631C213.35 97.2334 212.3 96.6279 211.421 95.8467C210.542 95.0654 209.854 94.1328 209.355 93.0488C208.867 91.9551 208.623 90.749 208.623 89.4307ZM213.179 89.4307C213.179 90.124 213.315 90.7783 213.589 91.3936C213.872 92.0088 214.272 92.5508 214.79 93.0195C215.317 93.4785 215.947 93.8447 216.68 94.1182C217.422 94.3818 218.252 94.5137 219.17 94.5137C219.756 94.5137 220.342 94.46 220.928 94.3525C221.514 94.2354 222.075 94.0742 222.612 93.8691C223.159 93.6641 223.667 93.415 224.136 93.1221C224.614 92.8291 225.029 92.502 225.381 92.1406V86.1494C224.941 85.7979 224.478 85.5 223.989 85.2559C223.501 85.0117 223.003 84.8115 222.495 84.6553C221.987 84.499 221.475 84.3867 220.957 84.3184C220.439 84.2402 219.937 84.2012 219.448 84.2012C218.452 84.2012 217.563 84.3379 216.782 84.6113C216.011 84.875 215.356 85.2412 214.819 85.71C214.292 86.1787 213.887 86.7305 213.604 87.3652C213.32 88 213.179 88.6885 213.179 89.4307ZM237.319 78.3564C236.89 78.3564 236.499 78.2979 236.147 78.1807C235.806 78.0537 235.513 77.8877 235.269 77.6826C235.024 77.4678 234.834 77.2236 234.697 76.9502C234.57 76.667 234.507 76.3691 234.507 76.0566C234.507 75.7344 234.57 75.4365 234.697 75.1631C234.834 74.8799 235.024 74.6357 235.269 74.4307C235.513 74.2256 235.806 74.0645 236.147 73.9473C236.499 73.8203 236.89 73.7568 237.319 73.7568C237.759 73.7568 238.149 73.8203 238.491 73.9473C238.843 74.0645 239.141 74.2256 239.385 74.4307C239.629 74.6357 239.814 74.8799 239.941 75.1631C240.078 75.4365 240.146 75.7344 240.146 76.0566C240.146 76.3691 240.078 76.667 239.941 76.9502C239.814 77.2236 239.629 77.4678 239.385 77.6826C239.141 77.8877 238.843 78.0537 238.491 78.1807C238.149 78.2979 237.759 78.3564 237.319 78.3564ZM235.151 80.7148H239.487V98H235.151V80.7148ZM245.054 80.7148H249.39V82.1797C250.542 81.5254 251.641 81.0664 252.686 80.8027C253.74 80.5391 254.771 80.4072 255.776 80.4072C257.095 80.4072 258.315 80.6025 259.438 80.9932C260.562 81.374 261.533 81.9453 262.354 82.707C263.174 83.4688 263.813 84.4209 264.272 85.5635C264.741 86.6963 264.976 88.0098 264.976 89.5039V98H260.654V90.207C260.654 89.2598 260.518 88.415 260.244 87.6729C259.98 86.9209 259.595 86.291 259.087 85.7832C258.589 85.2656 257.979 84.875 257.256 84.6113C256.543 84.3379 255.742 84.2012 254.854 84.2012C254.385 84.2012 253.901 84.25 253.403 84.3477C252.915 84.4453 252.432 84.5869 251.953 84.7725C251.484 84.9482 251.03 85.1729 250.591 85.4463C250.151 85.71 249.751 86.0127 249.39 86.3545V98H245.054V80.7148ZM273.018 100.93C273.564 101.125 274.121 101.286 274.688 101.413C275.254 101.55 275.801 101.657 276.328 101.735C276.865 101.823 277.378 101.882 277.866 101.911C278.354 101.95 278.789 101.97 279.17 101.97C280.322 101.97 281.323 101.828 282.173 101.545C283.032 101.271 283.745 100.9 284.312 100.432C284.888 99.9629 285.317 99.416 285.601 98.791C285.884 98.1758 286.025 97.5215 286.025 96.8281V96.0811C285.654 96.335 285.22 96.5791 284.722 96.8135C284.224 97.0479 283.677 97.2529 283.081 97.4287C282.485 97.6045 281.851 97.7461 281.177 97.8535C280.513 97.9609 279.824 98.0146 279.111 98.0146C277.695 98.0146 276.387 97.8047 275.186 97.3848C273.984 96.9551 272.944 96.3594 272.065 95.5977C271.187 94.8262 270.498 93.9033 270 92.8291C269.512 91.7549 269.268 90.5635 269.268 89.2549C269.268 87.917 269.526 86.7061 270.044 85.6221C270.562 84.5283 271.274 83.5957 272.183 82.8242C273.101 82.0527 274.185 81.457 275.435 81.0371C276.685 80.6172 278.042 80.4072 279.507 80.4072C280.132 80.4072 280.752 80.4463 281.367 80.5244C281.982 80.6025 282.568 80.71 283.125 80.8467C283.691 80.9834 284.219 81.1494 284.707 81.3447C285.205 81.5303 285.645 81.7354 286.025 81.96V80.7148H290.361V96.0225C290.361 97.5947 290.122 98.9863 289.644 100.197C289.165 101.408 288.462 102.424 287.534 103.244C286.616 104.074 285.474 104.699 284.106 105.119C282.739 105.549 281.172 105.764 279.404 105.764C278.77 105.764 278.11 105.734 277.427 105.676C276.743 105.627 276.055 105.549 275.361 105.441C274.678 105.344 273.999 105.222 273.325 105.075C272.661 104.938 272.021 104.777 271.406 104.592L273.018 100.93ZM273.823 89.2109C273.823 89.9043 273.96 90.5586 274.233 91.1738C274.517 91.7793 274.917 92.3115 275.435 92.7705C275.952 93.2197 276.577 93.5762 277.31 93.8398C278.042 94.0938 278.867 94.2207 279.785 94.2207C280.381 94.2207 280.972 94.167 281.558 94.0596C282.153 93.9424 282.72 93.7812 283.257 93.5762C283.804 93.3711 284.312 93.1221 284.78 92.8291C285.259 92.5361 285.674 92.209 286.025 91.8477V86.1494C285.586 85.7979 285.122 85.5 284.634 85.2559C284.146 85.0117 283.647 84.8115 283.14 84.6553C282.632 84.499 282.119 84.3867 281.602 84.3184C281.084 84.2402 280.581 84.2012 280.093 84.2012C279.097 84.2012 278.208 84.333 277.427 84.5967C276.655 84.8604 276.001 85.2217 275.464 85.6807C274.937 86.1299 274.531 86.6572 274.248 87.2627C273.965 87.8682 273.823 88.5176 273.823 89.2109ZM295.386 95.4658C295.386 95.0752 295.464 94.709 295.62 94.3672C295.786 94.0156 296.021 93.7129 296.323 93.459C296.626 93.1953 296.992 92.9902 297.422 92.8438C297.852 92.6973 298.335 92.624 298.872 92.624C299.409 92.624 299.893 92.6973 300.322 92.8438C300.752 92.9902 301.113 93.1953 301.406 93.459C301.709 93.7129 301.938 94.0156 302.095 94.3672C302.261 94.709 302.344 95.0752 302.344 95.4658C302.344 95.8564 302.261 96.2275 302.095 96.5791C301.938 96.9209 301.709 97.2188 301.406 97.4727C301.113 97.7266 300.752 97.9268 300.322 98.0732C299.893 98.2295 299.409 98.3076 298.872 98.3076C298.335 98.3076 297.852 98.2295 297.422 98.0732C296.992 97.9268 296.626 97.7266 296.323 97.4727C296.021 97.2188 295.786 96.9209 295.62 96.5791C295.464 96.2275 295.386 95.8564 295.386 95.4658ZM307.954 95.4658C307.954 95.0752 308.032 94.709 308.188 94.3672C308.354 94.0156 308.589 93.7129 308.892 93.459C309.194 93.1953 309.561 92.9902 309.99 92.8438C310.42 92.6973 310.903 92.624 311.44 92.624C311.978 92.624 312.461 92.6973 312.891 92.8438C313.32 92.9902 313.682 93.1953 313.975 93.459C314.277 93.7129 314.507 94.0156 314.663 94.3672C314.829 94.709 314.912 95.0752 314.912 95.4658C314.912 95.8564 314.829 96.2275 314.663 96.5791C314.507 96.9209 314.277 97.2188 313.975 97.4727C313.682 97.7266 313.32 97.9268 312.891 98.0732C312.461 98.2295 311.978 98.3076 311.44 98.3076C310.903 98.3076 310.42 98.2295 309.99 98.0732C309.561 97.9268 309.194 97.7266 308.892 97.4727C308.589 97.2188 308.354 96.9209 308.188 96.5791C308.032 96.2275 307.954 95.8564 307.954 95.4658ZM320.522 95.4658C320.522 95.0752 320.601 94.709 320.757 94.3672C320.923 94.0156 321.157 93.7129 321.46 93.459C321.763 93.1953 322.129 92.9902 322.559 92.8438C322.988 92.6973 323.472 92.624 324.009 92.624C324.546 92.624 325.029 92.6973 325.459 92.8438C325.889 92.9902 326.25 93.1953 326.543 93.459C326.846 93.7129 327.075 94.0156 327.231 94.3672C327.397 94.709 327.48 95.0752 327.48 95.4658C327.48 95.8564 327.397 96.2275 327.231 96.5791C327.075 96.9209 326.846 97.2188 326.543 97.4727C326.25 97.7266 325.889 97.9268 325.459 98.0732C325.029 98.2295 324.546 98.3076 324.009 98.3076C323.472 98.3076 322.988 98.2295 322.559 98.0732C322.129 97.9268 321.763 97.7266 321.46 97.4727C321.157 97.2188 320.923 96.9209 320.757 96.5791C320.601 96.2275 320.522 95.8564 320.522 95.4658Z" fill="white"/>
<defs>
<filter id="filter0_d_4_2" x="156" y="31" width="18" height="30" filterUnits="userSpaceOnUse" color-interpolation-filters="sRGB">
<feFlood flood-opacity="0" result="BackgroundImageFix"/>
<feColorMatrix in="SourceAlpha" type="matrix" values="0 0 0 0 0 0 0 0 0 0 0 0 0 0 0 0 0 0 127 0" result="hardAlpha"/>
<feOffset dy="4"/>
<feGaussianBlur stdDeviation="0.5"/>
<feComposite in2="hardAlpha" operator="out"/>
<feColorMatrix type="matrix" values="0 0 0 0 0 0 0 0 0 0 0 0 0 0 0 0 0 0 0.25 0"/>
<feBlend mode="normal" in2="BackgroundImageFix" result="effect1_dropShadow_4_2"/>
<feBlend mode="normal" in="SourceGraphic" in2="effect1_dropShadow_4_2" result="shape"/>
</filter>
<filter id="filter1_d_4_2" x="293" y="136" width="18" height="30" filterUnits="userSpaceOnUse" color-interpolation-filters="sRGB">
<feFlood flood-opacity="0" result="BackgroundImageFix"/>
<feColorMatrix in="SourceAlpha" type="matrix" values="0 0 0 0 0 0 0 0 0 0 0 0 0 0 0 0 0 0 127 0" result="hardAlpha"/>
<feOffset dy="4"/>
<feGaussianBlur stdDeviation="0.5"/>
<feComposite in2="hardAlpha" operator="out"/>
<feColorMatrix type="matrix" values="0 0 0 0 0 0 0 0 0 0 0 0 0 0 0 0 0 0 0.25 0"/>
<feBlend mode="normal" in2="BackgroundImageFix" result="effect1_dropShadow_4_2"/>
<feBlend mode="normal" in="SourceGraphic" in2="effect1_dropShadow_4_2" result="shape"/>
</filter>
<filter id="filter2_d_4_2" x="9" y="169" width="18" height="30" filterUnits="userSpaceOnUse" color-interpolation-filters="sRGB">
<feFlood flood-opacity="0" result="BackgroundImageFix"/>
<feColorMatrix in="SourceAlpha" type="matrix" values="0 0 0 0 0 0 0 0 0 0 0 0 0 0 0 0 0 0 127 0" result="hardAlpha"/>
<feOffset dy="4"/>
<feGaussianBlur stdDeviation="0.5"/>
<feComposite in2="hardAlpha" operator="out"/>
<feColorMatrix type="matrix" values="0 0 0 0 0 0 0 0 0 0 0 0 0 0 0 0 0 0 0.25 0"/>
<feBlend mode="normal" in2="BackgroundImageFix" result="effect1_dropShadow_4_2"/>
<feBlend mode="normal" in="SourceGraphic" in2="effect1_dropShadow_4_2" result="shape"/>
</filter>
<filter id="filter3_d_4_2" x="320" y="58" width="18" height="30" filterUnits="userSpaceOnUse" color-interpolation-filters="sRGB">
<feFlood flood-opacity="0" result="BackgroundImageFix"/>
<feColorMatrix in="SourceAlpha" type="matrix" values="0 0 0 0 0 0 0 0 0 0 0 0 0 0 0 0 0 0 127 0" result="hardAlpha"/>
<feOffset dy="4"/>
<feGaussianBlur stdDeviation="0.5"/>
<feComposite in2="hardAlpha" operator="out"/>
<feColorMatrix type="matrix" values="0 0 0 0 0 0 0 0 0 0 0 0 0 0 0 0 0 0 0.25 0"/>
<feBlend mode="normal" in2="BackgroundImageFix" result="effect1_dropShadow_4_2"/>
<feBlend mode="normal" in="SourceGraphic" in2="effect1_dropShadow_4_2" result="shape"/>
</filter>
<filter id="filter4_d_4_2" x="25" y="62" width="18" height="30" filterUnits="userSpaceOnUse" color-interpolation-filters="sRGB">
<feFlood flood-opacity="0" result="BackgroundImageFix"/>
<feColorMatrix in="SourceAlpha" type="matrix" values="0 0 0 0 0 0 0 0 0 0 0 0 0 0 0 0 0 0 127 0" result="hardAlpha"/>
<feOffset dy="4"/>
<feGaussianBlur stdDeviation="0.5"/>
<feComposite in2="hardAlpha" operator="out"/>
<feColorMatrix type="matrix" values="0 0 0 0 0 0 0 0 0 0 0 0 0 0 0 0 0 0 0.25 0"/>
<feBlend mode="normal" in2="BackgroundImageFix" result="effect1_dropShadow_4_2"/>
<feBlend mode="normal" in="SourceGraphic" in2="effect1_dropShadow_4_2" result="shape"/>
</filter>
<filter id="filter5_d_4_2" x="14" y="109" width="335" height="158" filterUnits="userSpaceOnUse" color-interpolation-filters="sRGB">
<feFlood flood-opacity="0" result="BackgroundImageFix"/>
<feColorMatrix in="SourceAlpha" type="matrix" values="0 0 0 0 0 0 0 0 0 0 0 0 0 0 0 0 0 0 127 0" result="hardAlpha"/>
<feOffset dy="4"/>
<feGaussianBlur stdDeviation="2"/>
<feComposite in2="hardAlpha" operator="out"/>
<feColorMatrix type="matrix" values="0 0 0 0 0 0 0 0 0 0 0 0 0 0 0 0 0 0 0.25 0"/>
<feBlend mode="normal" in2="BackgroundImageFix" result="effect1_dropShadow_4_2"/>
<feBlend mode="normal" in="SourceGraphic" in2="effect1_dropShadow_4_2" result="shape"/>
</filter>
<filter id="filter6_df_4_2" x="56" y="35" width="102.558" height="154" filterUnits="userSpaceOnUse" color-interpolation-filters="sRGB">
<feFlood flood-opacity="0" result="BackgroundImageFix"/>
<feColorMatrix in="SourceAlpha" type="matrix" values="0 0 0 0 0 0 0 0 0 0 0 0 0 0 0 0 0 0 127 0" result="hardAlpha"/>
<feOffset dy="4"/>
<feGaussianBlur stdDeviation="2"/>
<feComposite in2="hardAlpha" operator="out"/>
<feColorMatrix type="matrix" values="0 0 0 0 0 0 0 0 0 0 0 0 0 0 0 0 0 0 0.25 0"/>
<feBlend mode="normal" in2="BackgroundImageFix" result="effect1_dropShadow_4_2"/>
<feBlend mode="normal" in="SourceGraphic" in2="effect1_dropShadow_4_2" result="shape"/>
<feGaussianBlur stdDeviation="1.5" result="effect2_foregroundBlur_4_2"/>
</filter>
<filter id="filter7_d_4_2" x="56" y="38" width="102.558" height="151" filterUnits="userSpaceOnUse" color-interpolation-filters="sRGB">
<feFlood flood-opacity="0" result="BackgroundImageFix"/>
<feColorMatrix in="SourceAlpha" type="matrix" values="0 0 0 0 0 0 0 0 0 0 0 0 0 0 0 0 0 0 127 0" result="hardAlpha"/>
<feOffset dy="4"/>
<feGaussianBlur stdDeviation="2"/>
<feComposite in2="hardAlpha" operator="out"/>
<feColorMatrix type="matrix" values="0 0 0 0 0 0 0 0 0 0 0 0 0 0 0 0 0 0 0.25 0"/>
<feBlend mode="normal" in2="BackgroundImageFix" result="effect1_dropShadow_4_2"/>
<feBlend mode="normal" in="SourceGraphic" in2="effect1_dropShadow_4_2" result="shape"/>
</filter>
<linearGradient id="paint0_linear_4_2" x1="181.5" y1="109" x2="181.5" y2="259" gradientUnits="userSpaceOnUse">
<stop stop-color="#B9CCD5"/>
<stop offset="1" stop-color="#647279"/>
</linearGradient>
</defs>
</svg>
