<svg width="359" height="284" viewBox="0 0 359 284" fill="none" xmlns="http://www.w3.org/2000/svg">
<rect width="359" height="284" rx="20" fill="#242C38"/>
<g filter="url(#filter0_d_4_2)">
<path d="M165 31C165 31 165.466 37.439 167.161 40.1239C168.881 42.8494 173 43.5 173 43.5C173 43.5 168.881 44.1506 167.161 46.8761C165.466 49.561 165 56 165 56C165 56 164.534 49.561 162.839 46.8761C161.119 44.1506 157 43.5 157 43.5C157 43.5 161.119 42.8494 162.839 40.1239C164.534 37.439 165 31 165 31Z" fill="#FFE8A9"/>
</g>
<g filter="url(#filter1_d_4_2)">
<path d="M302 136C302 136 302.466 142.439 304.161 145.124C305.881 147.849 310 148.5 310 148.5C310 148.5 305.881 149.151 304.161 151.876C302.466 154.561 302 161 302 161C302 161 301.534 154.561 299.839 151.876C298.119 149.151 294 148.5 294 148.5C294 148.5 298.119 147.849 299.839 145.124C301.534 142.439 302 136 302 136Z" fill="#FFE8A9"/>
</g>
<g filter="url(#filter2_d_4_2)">
<path d="M239 80C239 80 239.466 86.439 241.161 89.1239C242.881 91.8494 247 92.5 247 92.5C247 92.5 242.881 93.1506 241.161 95.8761C239.466 98.561 239 105 239 105C239 105 238.534 98.561 236.839 95.8761C235.119 93.1506 231 92.5 231 92.5C231 92.5 235.119 91.8494 236.839 89.1239C238.534 86.439 239 80 239 80Z" fill="#FFE8A9"/>
</g>
<g filter="url(#filter3_d_4_2)">
<path d="M18 169C18 169 18.466 175.439 20.1607 178.124C21.8811 180.849 26 181.5 26 181.5C26 181.5 21.8811 182.151 20.1607 184.876C18.466 187.561 18 194 18 194C18 194 17.534 187.561 15.8393 184.876C14.1189 182.151 10 181.5 10 181.5C10 181.5 14.1189 180.849 15.8393 178.124C17.534 175.439 18 169 18 169Z" fill="#FFE8A9"/>
</g>
<g filter="url(#filter4_d_4_2)">
<path d="M329 58C329 58 329.466 64.439 331.161 67.1239C332.881 69.8494 337 70.5 337 70.5C337 70.5 332.881 71.1506 331.161 73.8761C329.466 76.561 329 83 329 83C329 83 328.534 76.561 326.839 73.8761C325.119 71.1506 321 70.5 321 70.5C321 70.5 325.119 69.8494 326.839 67.1239C328.534 64.439 329 58 329 58Z" fill="#FFE8A9"/>
</g>
<g filter="url(#filter5_d_4_2)">
<path d="M34 62C34 62 34.466 68.439 36.1607 71.1239C37.8811 73.8494 42 74.5 42 74.5C42 74.5 37.8811 75.1506 36.1607 77.8761C34.466 80.561 34 87 34 87C34 87 33.534 80.561 31.8393 77.8761C30.1189 75.1506 26 74.5 26 74.5C26 74.5 30.1189 73.8494 31.8393 71.1239C33.534 68.439 34 62 34 62Z" fill="#FFE8A9"/>
</g>
<g filter="url(#filter6_d_4_2)">
<path d="M157 109C181.765 109 203.138 122.584 213.071 142.221C216.259 141.424 219.583 141 223 141C241.384 141 257.071 153.209 263.221 170.382C267.036 168.844 271.175 168 275.5 168C292.174 168 306.085 180.514 309.3 197.149C310.353 197.051 311.42 197 312.5 197C330.449 197 345 210.879 345 228C345 245.121 330.449 259 312.5 259C311.659 259 310.825 258.969 310 258.909V259H55V258.987C54.6678 258.995 54.3344 259 54 259C34.1177 259 18 245.121 18 228C18 213.399 29.7225 201.158 45.5049 197.87C48.9652 173.633 69.8064 155 95 155C95.4431 155 95.8849 155.006 96.3252 155.018C102.227 128.734 127.15 109 157 109Z" fill="url(#paint0_linear_4_2)"/>
</g>
<g filter="url(#filter7_df_4_2)">
<path d="M60 109.5C60 148.988 92.0284 181 131.537 181C139.344 181 146.858 179.75 153.891 177.44C154.831 177.131 154.755 175.793 153.802 175.528C123.631 167.134 101.492 139.471 101.492 106.64C101.492 77.2828 119.194 52.0579 144.512 41.047C145.419 40.6525 145.309 39.3166 144.335 39.1409C140.183 38.3914 135.906 38 131.537 38C92.0284 38 60 70.0116 60 109.5Z" fill="#FFE499"/>
</g>
<g filter="url(#filter8_d_4_2)">
<path d="M60 109.5C60 148.988 92.0284 181 131.537 181C139.344 181 146.858 179.75 153.891 177.44C154.831 177.131 154.755 175.793 153.802 175.528C123.631 167.134 101.492 139.471 101.492 106.64C101.492 77.2828 119.194 52.0579 144.512 41.047C145.419 40.6525 145.309 39.3166 144.335 39.1409C140.183 38.3914 135.906 38 131.537 38C92.0284 38 60 70.0116 60 109.5Z" fill="#FFD768"/>
</g>
<defs>
<filter id="filter0_d_4_2" x="156" y="31" width="18" height="30" filterUnits="userSpaceOnUse" color-interpolation-filters="sRGB">
<feFlood flood-opacity="0" result="BackgroundImageFix"/>
<feColorMatrix in="SourceAlpha" type="matrix" values="0 0 0 0 0 0 0 0 0 0 0 0 0 0 0 0 0 0 127 0" result="hardAlpha"/>
<feOffset dy="4"/>
<feGaussianBlur stdDeviation="0.5"/>
<feComposite in2="hardAlpha" operator="out"/>
<feColorMatrix type="matrix" values="0 0 0 0 0 0 0 0 0 0 0 0 0 0 0 0 0 0 0.25 0"/>
<feBlend mode="normal" in2="BackgroundImageFix" result="effect1_dropShadow_4_2"/>
<feBlend mode="normal" in="SourceGraphic" in2="effect1_dropShadow_4_2" result="shape"/>
</filter>
<filter id="filter1_d_4_2" x="293" y="136" width="18" height="30" filterUnits="userSpaceOnUse" color-interpolation-filters="sRGB">
<feFlood flood-opacity="0" result="BackgroundImageFix"/>
<feColorMatrix in="SourceAlpha" type="matrix" values="0 0 0 0 0 0 0 0 0 0 0 0 0 0 0 0 0 0 127 0" result="hardAlpha"/>
<feOffset dy="4"/>
<feGaussianBlur stdDeviation="0.5"/>
<feComposite in2="hardAlpha" operator="out"/>
<feColorMatrix type="matrix" values="0 0 0 0 0 0 0 0 0 0 0 0 0 0 0 0 0 0 0.25 0"/>
<feBlend mode="normal" in2="BackgroundImageFix" result="effect1_dropShadow_4_2"/>
<feBlend mode="normal" in="SourceGraphic" in2="effect1_dropShadow_4_2" result="shape"/>
</filter>
<filter id="filter2_d_4_2" x="230" y="80" width="18" height="30" filterUnits="userSpaceOnUse" color-interpolation-filters="sRGB">
<feFlood flood-opacity="0" result="BackgroundImageFix"/>
<feColorMatrix in="SourceAlpha" type="matrix" values="0 0 0 0 0 0 0 0 0 0 0 0 0 0 0 0 0 0 127 0" result="hardAlpha"/>
<feOffset dy="4"/>
<feGaussianBlur stdDeviation="0.5"/>
<feComposite in2="hardAlpha" operator="out"/>
<feColorMatrix type="matrix" values="0 0 0 0 0 0 0 0 0 0 0 0 0 0 0 0 0 0 0.25 0"/>
<feBlend mode="normal" in2="BackgroundImageFix" result="effect1_dropShadow_4_2"/>
<feBlend mode="normal" in="SourceGraphic" in2="effect1_dropShadow_4_2" result="shape"/>
</filter>
<filter id="filter3_d_4_2" x="9" y="169" width="18" height="30" filterUnits="userSpaceOnUse" color-interpolation-filters="sRGB">
<feFlood flood-opacity="0" result="BackgroundImageFix"/>
<feColorMatrix in="SourceAlpha" type="matrix" values="0 0 0 0 0 0 0 0 0 0 0 0 0 0 0 0 0 0 127 0" result="hardAlpha"/>
<feOffset dy="4"/>
<feGaussianBlur stdDeviation="0.5"/>
<feComposite in2="hardAlpha" operator="out"/>
<feColorMatrix type="matrix" values="0 0 0 0 0 0 0 0 0 0 0 0 0 0 0 0 0 0 0.25 0"/>
<feBlend mode="normal" in2="BackgroundImageFix" result="effect1_dropShadow_4_2"/>
<feBlend mode="normal" in="SourceGraphic" in2="effect1_dropShadow_4_2" result="shape"/>
</filter>
<filter id="filter4_d_4_2" x="320" y="58" width="18" height="30" filterUnits="userSpaceOnUse" color-interpolation-filters="sRGB">
<feFlood flood-opacity="0" result="BackgroundImageFix"/>
<feColorMatrix in="SourceAlpha" type="matrix" values="0 0 0 0 0 0 0 0 0 0 0 0 0 0 0 0 0 0 127 0" result="hardAlpha"/>
<feOffset dy="4"/>
<feGaussianBlur stdDeviation="0.5"/>
<feComposite in2="hardAlpha" operator="out"/>
<feColorMatrix type="matrix" values="0 0 0 0 0 0 0 0 0 0 0 0 0 0 0 0 0 0 0.25 0"/>
<feBlend mode="normal" in2="BackgroundImageFix" result="effect1_dropShadow_4_2"/>
<feBlend mode="normal" in="SourceGraphic" in2="effect1_dropShadow_4_2" result="shape"/>
</filter>
<filter id="filter5_d_4_2" x="25" y="62" width="18" height="30" filterUnits="userSpaceOnUse" color-interpolation-filters="sRGB">
<feFlood flood-opacity="0" result="BackgroundImageFix"/>
<feColorMatrix in="SourceAlpha" type="matrix" values="0 0 0 0 0 0 0 0 0 0 0 0 0 0 0 0 0 0 127 0" result="hardAlpha"/>
<feOffset dy="4"/>
<feGaussianBlur stdDeviation="0.5"/>
<feComposite in2="hardAlpha" operator="out"/>
<feColorMatrix type="matrix" values="0 0 0 0 0 0 0 0 0 0 0 0 0 0 0 0 0 0 0.25 0"/>
<feBlend mode="normal" in2="BackgroundImageFix" result="effect1_dropShadow_4_2"/>
<feBlend mode="normal" in="SourceGraphic" in2="effect1_dropShadow_4_2" result="shape"/>
</filter>
<filter id="filter6_d_4_2" x="14" y="109" width="335" height="158" filterUnits="userSpaceOnUse" color-interpolation-filters="sRGB">
<feFlood flood-opacity="0" result="BackgroundImageFix"/>
<feColorMatrix in="SourceAlpha" type="matrix" values="0 0 0 0 0 0 0 0 0 0 0 0 0 0 0 0 0 0 127 0" result="hardAlpha"/>
<feOffset dy="4"/>
<feGaussianBlur stdDeviation="2"/>
<feComposite in2="hardAlpha" operator="out"/>
<feColorMatrix type="matrix" values="0 0 0 0 0 0 0 0 0 0 0 0 0 0 0 0 0 0 0.25 0"/>
<feBlend mode="normal" in2="BackgroundImageFix" result="effect1_dropShadow_4_2"/>
<feBlend mode="normal" in="SourceGraphic" in2="effect1_dropShadow_4_2" result="shape"/>
</filter>
<filter id="filter7_df_4_2" x="56" y="35" width="102.558" height="154" filterUnits="userSpaceOnUse" color-interpolation-filters="sRGB">
<feFlood flood-opacity="0" result="BackgroundImageFix"/>
<feColorMatrix in="SourceAlpha" type="matrix" values="0 0 0 0 0 0 0 0 0 0 0 0 0 0 0 0 0 0 127 0" result="hardAlpha"/>
<feOffset dy="4"/>
<feGaussianBlur stdDeviation="2"/>
<feComposite in2="hardAlpha" operator="out"/>
<feColorMatrix type="matrix" values="0 0 0 0 0 0 0 0 0 0 0 0 0 0 0 0 0 0 0.25 0"/>
<feBlend mode="normal" in2="BackgroundImageFix" result="effect1_dropShadow_4_2"/>
<feBlend mode="normal" in="SourceGraphic" in2="effect1_dropShadow_4_2" result="shape"/>
<feGaussianBlur stdDeviation="1.5" result="effect2_foregroundBlur_4_2"/>
</filter>
<filter id="filter8_d_4_2" x="56" y="38" width="102.558" height="151" filterUnits="userSpaceOnUse" color-interpolation-filters="sRGB">
<feFlood flood-opacity="0" result="BackgroundImageFix"/>
<feColorMatrix in="SourceAlpha" type="matrix" values="0 0 0 0 0 0 0 0 0 0 0 0 0 0 0 0 0 0 127 0" result="hardAlpha"/>
<feOffset dy="4"/>
<feGaussianBlur stdDeviation="2"/>
<feComposite in2="hardAlpha" operator="out"/>
<feColorMatrix type="matrix" values="0 0 0 0 0 0 0 0 0 0 0 0 0 0 0 0 0 0 0.25 0"/>
<feBlend mode="normal" in2="BackgroundImageFix" result="effect1_dropShadow_4_2"/>
<feBlend mode="normal" in="SourceGraphic" in2="effect1_dropShadow_4_2" result="shape"/>
</filter>
<linearGradient id="paint0_linear_4_2" x1="181.5" y1="109" x2="181.5" y2="259" gradientUnits="userSpaceOnUse">
<stop stop-color="#B9CCD5"/>
<stop offset="1" stop-color="#647279"/>
</linearGradient>
</defs>
</svg>
