<svg width="359" height="284" viewBox="0 0 359 284" fill="none" xmlns="http://www.w3.org/2000/svg">
<rect width="359" height="284" rx="20" fill="#242C38"/>
<g filter="url(#filter0_d_4_2)">
<path d="M165 31C165 31 165.466 37.439 167.161 40.1239C168.881 42.8494 173 43.5 173 43.5C173 43.5 168.881 44.1506 167.161 46.8761C165.466 49.561 165 56 165 56C165 56 164.534 49.561 162.839 46.8761C161.119 44.1506 157 43.5 157 43.5C157 43.5 161.119 42.8494 162.839 40.1239C164.534 37.439 165 31 165 31Z" fill="#FFE8A9"/>
</g>
<g filter="url(#filter1_d_4_2)">
<path d="M302 136C302 136 302.466 142.439 304.161 145.124C305.881 147.849 310 148.5 310 148.5C310 148.5 305.881 149.151 304.161 151.876C302.466 154.561 302 161 302 161C302 161 301.534 154.561 299.839 151.876C298.119 149.151 294 148.5 294 148.5C294 148.5 298.119 147.849 299.839 145.124C301.534 142.439 302 136 302 136Z" fill="#FFE8A9"/>
</g>
<g filter="url(#filter2_d_4_2)">
<path d="M18 169C18 169 18.466 175.439 20.1607 178.124C21.8811 180.849 26 181.5 26 181.5C26 181.5 21.8811 182.151 20.1607 184.876C18.466 187.561 18 194 18 194C18 194 17.534 187.561 15.8393 184.876C14.1189 182.151 10 181.5 10 181.5C10 181.5 14.1189 180.849 15.8393 178.124C17.534 175.439 18 169 18 169Z" fill="#FFE8A9"/>
</g>
<g filter="url(#filter3_d_4_2)">
<path d="M329 58C329 58 329.466 64.439 331.161 67.1239C332.881 69.8494 337 70.5 337 70.5C337 70.5 332.881 71.1506 331.161 73.8761C329.466 76.561 329 83 329 83C329 83 328.534 76.561 326.839 73.8761C325.119 71.1506 321 70.5 321 70.5C321 70.5 325.119 69.8494 326.839 67.1239C328.534 64.439 329 58 329 58Z" fill="#FFE8A9"/>
</g>
<g filter="url(#filter4_d_4_2)">
<path d="M34 62C34 62 34.466 68.439 36.1607 71.1239C37.8811 73.8494 42 74.5 42 74.5C42 74.5 37.8811 75.1506 36.1607 77.8761C34.466 80.561 34 87 34 87C34 87 33.534 80.561 31.8393 77.8761C30.1189 75.1506 26 74.5 26 74.5C26 74.5 30.1189 73.8494 31.8393 71.1239C33.534 68.439 34 62 34 62Z" fill="#FFE8A9"/>
</g>
<g filter="url(#filter5_d_4_2)">
<path d="M157 109C181.765 109 203.138 122.584 213.071 142.221C216.259 141.424 219.583 141 223 141C241.384 141 257.071 153.209 263.221 170.382C267.036 168.844 271.175 168 275.5 168C292.174 168 306.085 180.514 309.3 197.149C310.353 197.051 311.42 197 312.5 197C330.449 197 345 210.879 345 228C345 245.121 330.449 259 312.5 259C311.659 259 310.825 258.969 310 258.909V259H55V258.987C54.6678 258.995 54.3344 259 54 259C34.1177 259 18 245.121 18 228C18 213.399 29.7225 201.158 45.5049 197.87C48.9652 173.633 69.8064 155 95 155C95.4431 155 95.8849 155.006 96.3252 155.018C102.227 128.734 127.15 109 157 109Z" fill="url(#paint0_linear_4_2)"/>
</g>
<g filter="url(#filter6_df_4_2)">
<path d="M60 109.5C60 148.988 92.0284 181 131.537 181C139.344 181 146.858 179.75 153.891 177.44C154.831 177.131 154.755 175.793 153.802 175.528C123.631 167.134 101.492 139.471 101.492 106.64C101.492 77.2828 119.194 52.0579 144.512 41.047C145.419 40.6525 145.309 39.3166 144.335 39.1409C140.183 38.3914 135.906 38 131.537 38C92.0284 38 60 70.0116 60 109.5Z" fill="#FFE499"/>
</g>
<g filter="url(#filter7_d_4_2)">
<path d="M60 109.5C60 148.988 92.0284 181 131.537 181C139.344 181 146.858 179.75 153.891 177.44C154.831 177.131 154.755 175.793 153.802 175.528C123.631 167.134 101.492 139.471 101.492 106.64C101.492 77.2828 119.194 52.0579 144.512 41.047C145.419 40.6525 145.309 39.3166 144.335 39.1409C140.183 38.3914 135.906 38 131.537 38C92.0284 38 60 70.0116 60 109.5Z" fill="#FFD768"/>
</g>
<path d="M160.223 75.1045H164.866L179.134 82.5752V75.1045H183.777V98H179.134V87.4971L164.866 80.0703V98H160.223V75.1045ZM191.995 78.3564C191.565 78.3564 191.175 78.2979 190.823 78.1807C190.481 78.0537 190.188 77.8877 189.944 77.6826C189.7 77.4678 189.51 77.2236 189.373 76.9502C189.246 76.667 189.183 76.3691 189.183 76.0566C189.183 75.7344 189.246 75.4365 189.373 75.1631C189.51 74.8799 189.7 74.6357 189.944 74.4307C190.188 74.2256 190.481 74.0645 190.823 73.9473C191.175 73.8203 191.565 73.7568 191.995 73.7568C192.435 73.7568 192.825 73.8203 193.167 73.9473C193.519 74.0645 193.816 74.2256 194.061 74.4307C194.305 74.6357 194.49 74.8799 194.617 75.1631C194.754 75.4365 194.822 75.7344 194.822 76.0566C194.822 76.3691 194.754 76.667 194.617 76.9502C194.49 77.2236 194.305 77.4678 194.061 77.6826C193.816 77.8877 193.519 78.0537 193.167 78.1807C192.825 78.2979 192.435 78.3564 191.995 78.3564ZM189.827 80.7148H194.163V98H189.827V80.7148ZM199.847 80.7148H204.183V82.1797C205.267 81.5156 206.321 81.0566 207.347 80.8027C208.382 80.5391 209.393 80.4072 210.379 80.4072C211.756 80.4072 213.021 80.627 214.173 81.0664C215.325 81.5059 216.312 82.1699 217.132 83.0586C217.767 82.5703 218.392 82.1602 219.007 81.8281C219.622 81.4863 220.237 81.2129 220.853 81.0078C221.468 80.793 222.093 80.6416 222.728 80.5537C223.362 80.4561 224.017 80.4072 224.69 80.4072C226.106 80.4072 227.391 80.6025 228.543 80.9932C229.695 81.374 230.677 81.9453 231.487 82.707C232.308 83.4688 232.938 84.4209 233.377 85.5635C233.826 86.6963 234.051 88.0098 234.051 89.5039V98H229.729V90.207C229.729 89.2598 229.593 88.415 229.319 87.6729C229.056 86.9209 228.68 86.291 228.191 85.7832C227.713 85.2656 227.137 84.875 226.463 84.6113C225.799 84.3379 225.066 84.2012 224.266 84.2012C223.826 84.2012 223.377 84.2451 222.918 84.333C222.459 84.4111 222.01 84.5381 221.57 84.7139C221.141 84.8896 220.735 85.1143 220.354 85.3877C219.974 85.6514 219.642 85.9639 219.358 86.3252V98H215.037V90.207C215.037 89.2598 214.9 88.415 214.627 87.6729C214.363 86.9209 213.987 86.291 213.499 85.7832C213.021 85.2656 212.439 84.875 211.756 84.6113C211.082 84.3379 210.34 84.2012 209.529 84.2012C209.031 84.2012 208.528 84.2549 208.021 84.3623C207.522 84.46 207.039 84.6016 206.57 84.7871C206.111 84.9727 205.677 85.1973 205.267 85.4609C204.866 85.7246 204.505 86.0225 204.183 86.3545V98H199.847V80.7148ZM239.397 73.6982H243.733V82.3408C244.114 82.0771 244.563 81.8281 245.081 81.5938C245.599 81.3594 246.155 81.1543 246.751 80.9785C247.347 80.8027 247.962 80.666 248.597 80.5684C249.231 80.4609 249.866 80.4072 250.501 80.4072C251.966 80.4072 253.309 80.6221 254.529 81.0518C255.76 81.4814 256.814 82.0869 257.693 82.8682C258.572 83.6494 259.256 84.5869 259.744 85.6807C260.242 86.7646 260.491 87.9658 260.491 89.2842C260.491 90.6611 260.232 91.9062 259.715 93.0195C259.197 94.123 258.479 95.0703 257.562 95.8613C256.653 96.6426 255.569 97.248 254.31 97.6777C253.06 98.0977 251.702 98.3076 250.237 98.3076C249.612 98.3076 248.992 98.2686 248.377 98.1904C247.771 98.1123 247.186 98.0049 246.619 97.8682C246.062 97.7314 245.535 97.5703 245.037 97.3848C244.549 97.1895 244.114 96.9795 243.733 96.7549V98H239.397V73.6982ZM243.733 92.5654C244.173 92.917 244.637 93.2148 245.125 93.459C245.613 93.7031 246.111 93.9033 246.619 94.0596C247.127 94.2158 247.64 94.333 248.157 94.4111C248.675 94.4795 249.178 94.5137 249.666 94.5137C250.662 94.5137 251.546 94.3818 252.317 94.1182C253.099 93.8447 253.753 93.4736 254.28 93.0049C254.817 92.5361 255.228 91.9844 255.511 91.3496C255.794 90.7148 255.936 90.0264 255.936 89.2842C255.936 88.5908 255.794 87.9365 255.511 87.3213C255.237 86.7061 254.837 86.1689 254.31 85.71C253.792 85.2412 253.162 84.875 252.42 84.6113C251.688 84.3379 250.862 84.2012 249.944 84.2012C249.358 84.2012 248.772 84.2598 248.187 84.377C247.601 84.4844 247.034 84.6406 246.487 84.8457C245.95 85.0508 245.442 85.2998 244.964 85.5928C244.495 85.8857 244.085 86.2129 243.733 86.5742V92.5654ZM264.505 80.7002H268.826V89.1377C268.826 89.9385 268.914 90.6709 269.09 91.335C269.266 91.9893 269.563 92.5508 269.983 93.0195C270.413 93.4883 270.979 93.8545 271.683 94.1182C272.396 94.3721 273.279 94.499 274.334 94.499C274.832 94.499 275.335 94.4453 275.843 94.3379C276.36 94.2305 276.854 94.084 277.322 93.8984C277.791 93.7031 278.226 93.4736 278.626 93.21C279.036 92.9463 279.388 92.6582 279.681 92.3457V80.7002H284.017V98H279.681V96.5205C278.616 97.1553 277.547 97.6094 276.473 97.8828C275.398 98.1562 274.378 98.293 273.411 98.293C271.829 98.293 270.472 98.1025 269.339 97.7217C268.216 97.3408 267.293 96.7891 266.57 96.0664C265.857 95.334 265.335 94.4404 265.003 93.3857C264.671 92.3213 264.505 91.1104 264.505 89.7529V80.7002ZM290.213 92.6973C291.385 93.4004 292.674 93.918 294.08 94.25C295.486 94.582 296.927 94.748 298.401 94.748C299.397 94.748 300.228 94.6797 300.892 94.543C301.556 94.4062 302.088 94.2305 302.488 94.0156C302.889 93.8008 303.172 93.5566 303.338 93.2832C303.504 93.0098 303.587 92.7314 303.587 92.4482C303.587 92.0381 303.406 91.6865 303.045 91.3936C302.693 91.1006 302.107 90.9541 301.287 90.9541C300.906 90.9541 300.496 90.9785 300.057 91.0273C299.617 91.0762 299.153 91.1299 298.665 91.1885C298.187 91.2373 297.684 91.2861 297.156 91.335C296.639 91.3838 296.111 91.4082 295.574 91.4082C294.402 91.4082 293.401 91.2812 292.571 91.0273C291.751 90.7734 291.082 90.4268 290.564 89.9873C290.047 89.5479 289.671 89.0303 289.437 88.4346C289.202 87.8291 289.085 87.1797 289.085 86.4863C289.085 85.6074 289.29 84.7969 289.7 84.0547C290.11 83.3125 290.696 82.6729 291.458 82.1357C292.22 81.5889 293.138 81.1641 294.212 80.8613C295.296 80.5586 296.502 80.4072 297.83 80.4072C298.523 80.4072 299.246 80.4512 299.998 80.5391C300.76 80.6172 301.507 80.7246 302.239 80.8613C302.972 80.998 303.675 81.1592 304.349 81.3447C305.022 81.5205 305.618 81.7109 306.136 81.916L304.773 85.2852C303.67 84.875 302.566 84.5527 301.463 84.3184C300.369 84.0742 299.241 83.9521 298.079 83.9521C297.269 83.9521 296.58 84.0156 296.014 84.1426C295.457 84.2598 295.003 84.4209 294.651 84.626C294.3 84.8213 294.041 85.0508 293.875 85.3145C293.719 85.5684 293.641 85.8369 293.641 86.1201C293.641 86.3252 293.68 86.5107 293.758 86.6768C293.846 86.8428 293.982 86.9893 294.168 87.1162C294.363 87.2334 294.612 87.3262 294.915 87.3945C295.228 87.4531 295.608 87.4824 296.058 87.4824C296.468 87.4824 296.902 87.458 297.361 87.4092C297.82 87.3604 298.299 87.3115 298.797 87.2627C299.295 87.2041 299.808 87.1504 300.335 87.1016C300.872 87.0527 301.419 87.0283 301.976 87.0283C303.011 87.0283 303.914 87.1504 304.686 87.3945C305.467 87.6387 306.111 87.9805 306.619 88.4199C307.127 88.8594 307.508 89.377 307.762 89.9727C308.016 90.5684 308.143 91.2178 308.143 91.9209C308.143 92.8291 307.933 93.6738 307.513 94.4551C307.093 95.2363 306.468 95.915 305.638 96.4912C304.808 97.0576 303.772 97.502 302.532 97.8242C301.302 98.1465 299.876 98.3076 298.255 98.3076C297.259 98.3076 296.297 98.2441 295.369 98.1172C294.441 98 293.558 97.8389 292.718 97.6338C291.878 97.4189 291.087 97.1699 290.345 96.8867C289.612 96.6035 288.943 96.3008 288.338 95.9785L290.213 92.6973Z" fill="white"/>
<defs>
<filter id="filter0_d_4_2" x="156" y="31" width="18" height="30" filterUnits="userSpaceOnUse" color-interpolation-filters="sRGB">
<feFlood flood-opacity="0" result="BackgroundImageFix"/>
<feColorMatrix in="SourceAlpha" type="matrix" values="0 0 0 0 0 0 0 0 0 0 0 0 0 0 0 0 0 0 127 0" result="hardAlpha"/>
<feOffset dy="4"/>
<feGaussianBlur stdDeviation="0.5"/>
<feComposite in2="hardAlpha" operator="out"/>
<feColorMatrix type="matrix" values="0 0 0 0 0 0 0 0 0 0 0 0 0 0 0 0 0 0 0.25 0"/>
<feBlend mode="normal" in2="BackgroundImageFix" result="effect1_dropShadow_4_2"/>
<feBlend mode="normal" in="SourceGraphic" in2="effect1_dropShadow_4_2" result="shape"/>
</filter>
<filter id="filter1_d_4_2" x="293" y="136" width="18" height="30" filterUnits="userSpaceOnUse" color-interpolation-filters="sRGB">
<feFlood flood-opacity="0" result="BackgroundImageFix"/>
<feColorMatrix in="SourceAlpha" type="matrix" values="0 0 0 0 0 0 0 0 0 0 0 0 0 0 0 0 0 0 127 0" result="hardAlpha"/>
<feOffset dy="4"/>
<feGaussianBlur stdDeviation="0.5"/>
<feComposite in2="hardAlpha" operator="out"/>
<feColorMatrix type="matrix" values="0 0 0 0 0 0 0 0 0 0 0 0 0 0 0 0 0 0 0.25 0"/>
<feBlend mode="normal" in2="BackgroundImageFix" result="effect1_dropShadow_4_2"/>
<feBlend mode="normal" in="SourceGraphic" in2="effect1_dropShadow_4_2" result="shape"/>
</filter>
<filter id="filter2_d_4_2" x="9" y="169" width="18" height="30" filterUnits="userSpaceOnUse" color-interpolation-filters="sRGB">
<feFlood flood-opacity="0" result="BackgroundImageFix"/>
<feColorMatrix in="SourceAlpha" type="matrix" values="0 0 0 0 0 0 0 0 0 0 0 0 0 0 0 0 0 0 127 0" result="hardAlpha"/>
<feOffset dy="4"/>
<feGaussianBlur stdDeviation="0.5"/>
<feComposite in2="hardAlpha" operator="out"/>
<feColorMatrix type="matrix" values="0 0 0 0 0 0 0 0 0 0 0 0 0 0 0 0 0 0 0.25 0"/>
<feBlend mode="normal" in2="BackgroundImageFix" result="effect1_dropShadow_4_2"/>
<feBlend mode="normal" in="SourceGraphic" in2="effect1_dropShadow_4_2" result="shape"/>
</filter>
<filter id="filter3_d_4_2" x="320" y="58" width="18" height="30" filterUnits="userSpaceOnUse" color-interpolation-filters="sRGB">
<feFlood flood-opacity="0" result="BackgroundImageFix"/>
<feColorMatrix in="SourceAlpha" type="matrix" values="0 0 0 0 0 0 0 0 0 0 0 0 0 0 0 0 0 0 127 0" result="hardAlpha"/>
<feOffset dy="4"/>
<feGaussianBlur stdDeviation="0.5"/>
<feComposite in2="hardAlpha" operator="out"/>
<feColorMatrix type="matrix" values="0 0 0 0 0 0 0 0 0 0 0 0 0 0 0 0 0 0 0.25 0"/>
<feBlend mode="normal" in2="BackgroundImageFix" result="effect1_dropShadow_4_2"/>
<feBlend mode="normal" in="SourceGraphic" in2="effect1_dropShadow_4_2" result="shape"/>
</filter>
<filter id="filter4_d_4_2" x="25" y="62" width="18" height="30" filterUnits="userSpaceOnUse" color-interpolation-filters="sRGB">
<feFlood flood-opacity="0" result="BackgroundImageFix"/>
<feColorMatrix in="SourceAlpha" type="matrix" values="0 0 0 0 0 0 0 0 0 0 0 0 0 0 0 0 0 0 127 0" result="hardAlpha"/>
<feOffset dy="4"/>
<feGaussianBlur stdDeviation="0.5"/>
<feComposite in2="hardAlpha" operator="out"/>
<feColorMatrix type="matrix" values="0 0 0 0 0 0 0 0 0 0 0 0 0 0 0 0 0 0 0.25 0"/>
<feBlend mode="normal" in2="BackgroundImageFix" result="effect1_dropShadow_4_2"/>
<feBlend mode="normal" in="SourceGraphic" in2="effect1_dropShadow_4_2" result="shape"/>
</filter>
<filter id="filter5_d_4_2" x="14" y="109" width="335" height="158" filterUnits="userSpaceOnUse" color-interpolation-filters="sRGB">
<feFlood flood-opacity="0" result="BackgroundImageFix"/>
<feColorMatrix in="SourceAlpha" type="matrix" values="0 0 0 0 0 0 0 0 0 0 0 0 0 0 0 0 0 0 127 0" result="hardAlpha"/>
<feOffset dy="4"/>
<feGaussianBlur stdDeviation="2"/>
<feComposite in2="hardAlpha" operator="out"/>
<feColorMatrix type="matrix" values="0 0 0 0 0 0 0 0 0 0 0 0 0 0 0 0 0 0 0.25 0"/>
<feBlend mode="normal" in2="BackgroundImageFix" result="effect1_dropShadow_4_2"/>
<feBlend mode="normal" in="SourceGraphic" in2="effect1_dropShadow_4_2" result="shape"/>
</filter>
<filter id="filter6_df_4_2" x="56" y="35" width="102.558" height="154" filterUnits="userSpaceOnUse" color-interpolation-filters="sRGB">
<feFlood flood-opacity="0" result="BackgroundImageFix"/>
<feColorMatrix in="SourceAlpha" type="matrix" values="0 0 0 0 0 0 0 0 0 0 0 0 0 0 0 0 0 0 127 0" result="hardAlpha"/>
<feOffset dy="4"/>
<feGaussianBlur stdDeviation="2"/>
<feComposite in2="hardAlpha" operator="out"/>
<feColorMatrix type="matrix" values="0 0 0 0 0 0 0 0 0 0 0 0 0 0 0 0 0 0 0.25 0"/>
<feBlend mode="normal" in2="BackgroundImageFix" result="effect1_dropShadow_4_2"/>
<feBlend mode="normal" in="SourceGraphic" in2="effect1_dropShadow_4_2" result="shape"/>
<feGaussianBlur stdDeviation="1.5" result="effect2_foregroundBlur_4_2"/>
</filter>
<filter id="filter7_d_4_2" x="56" y="38" width="102.558" height="151" filterUnits="userSpaceOnUse" color-interpolation-filters="sRGB">
<feFlood flood-opacity="0" result="BackgroundImageFix"/>
<feColorMatrix in="SourceAlpha" type="matrix" values="0 0 0 0 0 0 0 0 0 0 0 0 0 0 0 0 0 0 127 0" result="hardAlpha"/>
<feOffset dy="4"/>
<feGaussianBlur stdDeviation="2"/>
<feComposite in2="hardAlpha" operator="out"/>
<feColorMatrix type="matrix" values="0 0 0 0 0 0 0 0 0 0 0 0 0 0 0 0 0 0 0.25 0"/>
<feBlend mode="normal" in2="BackgroundImageFix" result="effect1_dropShadow_4_2"/>
<feBlend mode="normal" in="SourceGraphic" in2="effect1_dropShadow_4_2" result="shape"/>
</filter>
<linearGradient id="paint0_linear_4_2" x1="181.5" y1="109" x2="181.5" y2="259" gradientUnits="userSpaceOnUse">
<stop stop-color="#B9CCD5"/>
<stop offset="1" stop-color="#647279"/>
</linearGradient>
</defs>
</svg>
