<svg width="335" height="208" viewBox="0 0 335 208" fill="none" xmlns="http://www.w3.org/2000/svg">
<circle cx="87" cy="83.1329" r="50" fill="#FFD35A"/>
<path opacity="0.9" d="M87 143.213C87 142.937 87.2239 142.713 87.5 142.713C87.7761 142.713 88 142.937 88 143.213V160.633C88 160.909 87.7761 161.133 87.5 161.133C87.2239 161.133 87 160.909 87 160.633V143.213Z" fill="#FFD35A" stroke="#FFD35A" stroke-width="6"/>
<path opacity="0.9" d="M87 3.50001C87 3.22387 87.2239 3.00001 87.5 3.00001C87.7761 3.00001 88 3.22387 88 3.50001V20.92C88 21.1962 87.7761 21.42 87.5 21.42C87.2239 21.42 87 21.1962 87 20.92V3.50001Z" fill="#FFD35A" stroke="#FFD35A" stroke-width="6"/>
<path opacity="0.9" d="M166.92 80.1329C167.196 80.1329 167.42 80.3567 167.42 80.6329C167.42 80.909 167.196 81.1329 166.92 81.1329H149.5C149.224 81.1329 149 80.909 149 80.6329C149 80.3567 149.224 80.1329 149.5 80.1329H166.92Z" fill="#FFD35A" stroke="#FFD35A" stroke-width="6"/>
<path opacity="0.9" d="M26.92 81.1329C27.1961 81.1329 27.42 81.3567 27.42 81.6329C27.42 81.909 27.1961 82.1329 26.92 82.1329H9.5C9.22386 82.1329 9 81.909 9 81.6329C9 81.3567 9.22386 81.1329 9.5 81.1329H26.92Z" fill="#FFD35A" stroke="#FFD35A" stroke-width="6"/>
<path opacity="0.9" d="M45.184 125.486C45.3793 125.291 45.6958 125.291 45.8911 125.486C46.0864 125.682 46.0864 125.998 45.8911 126.194L33.5751 138.51C33.3798 138.705 33.0632 138.705 32.868 138.51C32.6727 138.314 32.6727 137.998 32.868 137.802L45.184 125.486Z" fill="#FFD35A" stroke="#FFD35A" stroke-width="6"/>
<path opacity="0.9" d="M134.354 125.194C134.158 124.998 134.158 124.682 134.354 124.486C134.549 124.291 134.865 124.291 135.061 124.486L147.377 136.802C147.572 136.998 147.572 137.314 147.377 137.51C147.181 137.705 146.865 137.705 146.67 137.51L134.354 125.194Z" fill="#FFD35A" stroke="#FFD35A" stroke-width="6"/>
<path opacity="0.9" d="M28.3536 26.1935C28.1583 25.9982 28.1583 25.6817 28.3536 25.4864C28.5488 25.2911 28.8654 25.2911 29.0607 25.4864L41.3767 37.8024C41.572 37.9977 41.572 38.3143 41.3767 38.5095C41.1815 38.7048 40.8649 38.7048 40.6696 38.5095L28.3536 26.1935Z" fill="#FFD35A" stroke="#FFD35A" stroke-width="6"/>
<path opacity="0.9" d="M146.67 26.4864C146.865 26.2911 147.181 26.2911 147.377 26.4864C147.572 26.6817 147.572 26.9983 147.377 27.1935L135.061 39.5096C134.865 39.7048 134.549 39.7048 134.354 39.5096C134.158 39.3143 134.158 38.9977 134.354 38.8025L146.67 26.4864Z" fill="#FFD35A" stroke="#FFD35A" stroke-width="6"/>
<g filter="url(#filter0_d_21_11)">
<path d="M143 50C167.765 50 189.138 63.5838 199.071 83.2207C202.259 82.4235 205.583 82 209 82C227.384 82 243.071 94.2091 249.221 111.382C253.036 109.844 257.175 109 261.5 109C278.174 109 292.085 121.514 295.3 138.149C296.353 138.051 297.42 138 298.5 138C316.449 138 331 151.879 331 169C331 186.121 316.449 200 298.5 200C297.659 200 296.825 199.969 296 199.909V200H41V199.987C40.6678 199.995 40.3344 200 40 200C20.1177 200 4 186.121 4 169C4 154.399 15.7225 142.158 31.5049 138.87C34.9652 114.633 55.8064 96 81 96C81.4431 96 81.8849 96.0061 82.3252 96.0176C88.2267 69.7344 113.15 50 143 50Z" fill="url(#paint0_linear_21_11)"/>
</g>
<defs>
<filter id="filter0_d_21_11" x="0" y="50" width="335" height="158" filterUnits="userSpaceOnUse" color-interpolation-filters="sRGB">
<feFlood flood-opacity="0" result="BackgroundImageFix"/>
<feColorMatrix in="SourceAlpha" type="matrix" values="0 0 0 0 0 0 0 0 0 0 0 0 0 0 0 0 0 0 127 0" result="hardAlpha"/>
<feOffset dy="4"/>
<feGaussianBlur stdDeviation="2"/>
<feComposite in2="hardAlpha" operator="out"/>
<feColorMatrix type="matrix" values="0 0 0 0 0 0 0 0 0 0 0 0 0 0 0 0 0 0 0.25 0"/>
<feBlend mode="normal" in2="BackgroundImageFix" result="effect1_dropShadow_21_11"/>
<feBlend mode="normal" in="SourceGraphic" in2="effect1_dropShadow_21_11" result="shape"/>
</filter>
<linearGradient id="paint0_linear_21_11" x1="167.5" y1="50" x2="167.5" y2="200" gradientUnits="userSpaceOnUse">
<stop offset="0.432692" stop-color="#B9CCD5"/>
<stop offset="0.846154" stop-color="#96A7B0"/>
</linearGradient>
</defs>
</svg>
