<svg width="335" height="244" viewBox="0 0 335 244" fill="none" xmlns="http://www.w3.org/2000/svg">
<g filter="url(#filter0_d_33_538)">
<path d="M143 0C167.765 0 189.138 13.5838 199.071 33.2207C202.259 32.4235 205.583 32 209 32C227.384 32 243.071 44.2091 249.221 61.3818C253.036 59.8441 257.175 59 261.5 59C278.174 59 292.085 71.5143 295.3 88.1494C296.353 88.0513 297.42 88 298.5 88C316.449 88 331 101.879 331 119C331 136.121 316.449 150 298.5 150C297.659 150 296.825 149.969 296 149.909V150H41V149.987C40.6678 149.995 40.3344 150 40 150C20.1177 150 4 136.121 4 119C4 104.399 15.7225 92.158 31.5049 88.8701C34.9652 64.6331 55.8064 46 81 46C81.4431 46 81.8849 46.0061 82.3252 46.0176C88.2267 19.7344 113.15 0 143 0Z" fill="url(#paint0_linear_33_538)"/>
</g>
<g filter="url(#filter1_d_33_538)">
<g filter="url(#filter2_f_33_538)">
<path d="M50.5998 165.012V176.534M50.5998 188.055V176.534M50.5998 176.534L56.7903 169.937M50.5998 176.534L44.4092 169.937" stroke="white" stroke-width="5" stroke-linecap="round"/>
<path d="M50.5997 210.923V199.401M50.5997 187.88V199.401M50.5997 199.401L44.4091 205.998M50.5997 199.401L56.7903 205.998" stroke="white" stroke-width="5" stroke-linecap="round"/>
<path d="M69.8282 176.132L60.1772 182.073M50.5261 188.013L60.1772 182.073M60.1772 182.073L68.8942 184.098M60.1772 182.073L62.5109 173.246" stroke="white" stroke-width="5" stroke-linecap="round"/>
<path d="M31.3712 199.803L41.0223 193.862M50.6734 187.922L41.0223 193.862M41.0223 193.862L32.3052 191.837M41.0223 193.862L38.6885 202.689" stroke="white" stroke-width="5" stroke-linecap="round"/>
<path d="M30.8114 177.141L40.7434 182.575M50.6754 188.009L40.7434 182.575M40.7434 182.575L37.9769 173.88M40.7434 182.575L32.1375 185.048" stroke="white" stroke-width="5" stroke-linecap="round"/>
<path d="M70.3878 198.794L60.4558 193.36M50.5238 187.926L60.4558 193.36M60.4558 193.36L63.2224 202.055M60.4558 193.36L69.0618 190.887" stroke="white" stroke-width="5" stroke-linecap="round"/>
</g>
<g filter="url(#filter3_f_33_538)">
<path d="M164.897 163.178V174.7M164.897 186.222V174.7M164.897 174.7L171.088 168.104M164.897 174.7L158.706 168.104" stroke="white" stroke-width="5" stroke-linecap="round"/>
<path d="M164.897 209.089V197.568M164.897 186.046V197.568M164.897 197.568L158.706 204.164M164.897 197.568L171.088 204.164" stroke="white" stroke-width="5" stroke-linecap="round"/>
<path d="M184.125 174.299L174.474 180.239M164.823 186.179L174.474 180.239M174.474 180.239L183.191 182.264M174.474 180.239L176.808 171.412" stroke="white" stroke-width="5" stroke-linecap="round"/>
<path d="M145.669 197.969L155.32 192.029M164.971 186.089L155.32 192.029M155.32 192.029L146.603 190.004M155.32 192.029L152.986 200.856" stroke="white" stroke-width="5" stroke-linecap="round"/>
<path d="M145.109 175.307L155.041 180.741M164.973 186.175L155.041 180.741M155.041 180.741L152.274 172.046M155.041 180.741L146.435 183.214" stroke="white" stroke-width="5" stroke-linecap="round"/>
<path d="M184.685 196.961L174.753 191.526M164.821 186.092L174.753 191.526M174.753 191.526L177.52 200.222M174.753 191.526L183.359 189.054" stroke="white" stroke-width="5" stroke-linecap="round"/>
</g>
<g filter="url(#filter4_f_33_538)">
<path d="M222.545 186.91V198.432M222.545 209.954V198.432M222.545 198.432L228.736 191.836M222.545 198.432L216.355 191.836" stroke="white" stroke-width="5" stroke-linecap="round"/>
<path d="M222.545 232.822V221.3M222.545 209.778V221.3M222.545 221.3L216.355 227.896M222.545 221.3L228.736 227.896" stroke="white" stroke-width="5" stroke-linecap="round"/>
<path d="M241.774 198.031L232.123 203.971M222.472 209.912L232.123 203.971M232.123 203.971L240.84 205.996M232.123 203.971L234.457 195.144" stroke="white" stroke-width="5" stroke-linecap="round"/>
<path d="M203.317 221.701L212.968 215.761M222.619 209.821L212.968 215.761M212.968 215.761L204.251 213.736M212.968 215.761L210.634 224.588" stroke="white" stroke-width="5" stroke-linecap="round"/>
<path d="M202.757 199.039L212.689 204.474M222.621 209.908L212.689 204.474M212.689 204.474L209.923 195.778M212.689 204.474L204.083 206.946" stroke="white" stroke-width="5" stroke-linecap="round"/>
<path d="M242.333 220.693L232.401 215.259M222.469 209.825L232.401 215.259M232.401 215.259L235.168 223.954M232.401 215.259L241.007 212.786" stroke="white" stroke-width="5" stroke-linecap="round"/>
</g>
<g filter="url(#filter5_f_33_538)">
<path d="M279.4 164.375V175.897M279.4 187.419V175.897M279.4 175.897L285.591 169.301M279.4 175.897L273.21 169.301" stroke="white" stroke-width="5" stroke-linecap="round"/>
<path d="M279.4 210.287V198.765M279.4 187.243V198.765M279.4 198.765L273.21 205.361M279.4 198.765L285.591 205.361" stroke="white" stroke-width="5" stroke-linecap="round"/>
<path d="M298.629 175.496L288.978 181.436M279.327 187.376L288.978 181.436M288.978 181.436L297.695 183.461M288.978 181.436L291.312 172.609" stroke="white" stroke-width="5" stroke-linecap="round"/>
<path d="M260.172 199.166L269.823 193.226M279.474 187.286L269.823 193.226M269.823 193.226L261.106 191.201M269.823 193.226L267.489 202.053" stroke="white" stroke-width="5" stroke-linecap="round"/>
<path d="M259.612 176.504L269.544 181.938M279.476 187.372L269.544 181.938M269.544 181.938L266.778 173.243M269.544 181.938L260.938 184.411" stroke="white" stroke-width="5" stroke-linecap="round"/>
<path d="M299.188 198.158L289.256 192.723M279.324 187.289L289.256 192.723M289.256 192.723L292.023 201.419M289.256 192.723L297.862 190.251" stroke="white" stroke-width="5" stroke-linecap="round"/>
</g>
<g filter="url(#filter6_f_33_538)">
<path d="M107.208 185.385V196.906M107.208 208.428V196.906M107.208 196.906L113.398 190.31M107.208 196.906L101.017 190.31" stroke="white" stroke-width="5" stroke-linecap="round"/>
<path d="M107.208 231.296V219.774M107.208 208.252V219.774M107.208 219.774L101.017 226.371M107.208 219.774L113.398 226.371" stroke="white" stroke-width="5" stroke-linecap="round"/>
<path d="M126.436 196.505L116.785 202.445M107.134 208.386L116.785 202.445M116.785 202.445L125.502 204.471M116.785 202.445L119.119 193.618" stroke="white" stroke-width="5" stroke-linecap="round"/>
<path d="M87.9791 220.175L97.6302 214.235M107.281 208.295L97.6302 214.235M97.6302 214.235L88.9131 212.21M97.6302 214.235L95.2964 223.062" stroke="white" stroke-width="5" stroke-linecap="round"/>
<path d="M87.4192 197.514L97.3512 202.948M107.283 208.382L97.3512 202.948M97.3512 202.948L94.5847 194.252M97.3512 202.948L88.7453 205.421" stroke="white" stroke-width="5" stroke-linecap="round"/>
<path d="M126.996 219.167L117.064 213.733M107.132 208.299L117.064 213.733M117.064 213.733L119.83 222.428M117.064 213.733L125.67 211.26" stroke="white" stroke-width="5" stroke-linecap="round"/>
</g>
</g>
<path d="M50.5998 165.012V176.534M50.5998 188.055V176.534M50.5998 176.534L56.7903 169.937M50.5998 176.534L44.4092 169.937" stroke="white" stroke-width="5" stroke-linecap="round"/>
<path d="M50.5997 210.923V199.401M50.5997 187.88V199.401M50.5997 199.401L44.4091 205.998M50.5997 199.401L56.7903 205.998" stroke="white" stroke-width="5" stroke-linecap="round"/>
<path d="M69.8282 176.132L60.1772 182.073M50.5261 188.013L60.1772 182.073M60.1772 182.073L68.8942 184.098M60.1772 182.073L62.5109 173.246" stroke="white" stroke-width="5" stroke-linecap="round"/>
<path d="M31.3712 199.803L41.0223 193.862M50.6734 187.922L41.0223 193.862M41.0223 193.862L32.3052 191.837M41.0223 193.862L38.6885 202.689" stroke="white" stroke-width="5" stroke-linecap="round"/>
<path d="M30.8114 177.141L40.7434 182.575M50.6754 188.009L40.7434 182.575M40.7434 182.575L37.9769 173.88M40.7434 182.575L32.1375 185.048" stroke="white" stroke-width="5" stroke-linecap="round"/>
<path d="M70.3878 198.794L60.4558 193.36M50.5238 187.926L60.4558 193.36M60.4558 193.36L63.2224 202.055M60.4558 193.36L69.0618 190.887" stroke="white" stroke-width="5" stroke-linecap="round"/>
<path d="M164.897 163.178V174.7M164.897 186.222V174.7M164.897 174.7L171.088 168.104M164.897 174.7L158.706 168.104" stroke="white" stroke-width="5" stroke-linecap="round"/>
<path d="M164.897 209.089V197.568M164.897 186.046V197.568M164.897 197.568L158.706 204.164M164.897 197.568L171.088 204.164" stroke="white" stroke-width="5" stroke-linecap="round"/>
<path d="M184.125 174.299L174.474 180.239M164.823 186.179L174.474 180.239M174.474 180.239L183.191 182.264M174.474 180.239L176.808 171.412" stroke="white" stroke-width="5" stroke-linecap="round"/>
<path d="M145.669 197.969L155.32 192.029M164.971 186.089L155.32 192.029M155.32 192.029L146.603 190.004M155.32 192.029L152.986 200.856" stroke="white" stroke-width="5" stroke-linecap="round"/>
<path d="M145.109 175.307L155.041 180.741M164.973 186.175L155.041 180.741M155.041 180.741L152.274 172.046M155.041 180.741L146.435 183.214" stroke="white" stroke-width="5" stroke-linecap="round"/>
<path d="M184.685 196.961L174.753 191.526M164.821 186.092L174.753 191.526M174.753 191.526L177.52 200.222M174.753 191.526L183.359 189.054" stroke="white" stroke-width="5" stroke-linecap="round"/>
<path d="M222.545 186.91V198.432M222.545 209.954V198.432M222.545 198.432L228.736 191.836M222.545 198.432L216.355 191.836" stroke="white" stroke-width="5" stroke-linecap="round"/>
<path d="M222.545 232.822V221.3M222.545 209.778V221.3M222.545 221.3L216.355 227.896M222.545 221.3L228.736 227.896" stroke="white" stroke-width="5" stroke-linecap="round"/>
<path d="M241.774 198.031L232.123 203.971M222.472 209.912L232.123 203.971M232.123 203.971L240.84 205.996M232.123 203.971L234.457 195.144" stroke="white" stroke-width="5" stroke-linecap="round"/>
<path d="M203.317 221.701L212.968 215.761M222.619 209.821L212.968 215.761M212.968 215.761L204.251 213.736M212.968 215.761L210.634 224.588" stroke="white" stroke-width="5" stroke-linecap="round"/>
<path d="M202.757 199.039L212.689 204.474M222.621 209.908L212.689 204.474M212.689 204.474L209.923 195.778M212.689 204.474L204.083 206.946" stroke="white" stroke-width="5" stroke-linecap="round"/>
<path d="M242.333 220.693L232.401 215.259M222.469 209.825L232.401 215.259M232.401 215.259L235.168 223.954M232.401 215.259L241.007 212.786" stroke="white" stroke-width="5" stroke-linecap="round"/>
<path d="M279.4 164.375V175.897M279.4 187.419V175.897M279.4 175.897L285.591 169.301M279.4 175.897L273.21 169.301" stroke="white" stroke-width="5" stroke-linecap="round"/>
<path d="M279.4 210.287V198.765M279.4 187.243V198.765M279.4 198.765L273.21 205.361M279.4 198.765L285.591 205.361" stroke="white" stroke-width="5" stroke-linecap="round"/>
<path d="M298.629 175.496L288.978 181.436M279.327 187.376L288.978 181.436M288.978 181.436L297.695 183.461M288.978 181.436L291.312 172.609" stroke="white" stroke-width="5" stroke-linecap="round"/>
<path d="M260.172 199.166L269.823 193.226M279.474 187.286L269.823 193.226M269.823 193.226L261.106 191.201M269.823 193.226L267.489 202.053" stroke="white" stroke-width="5" stroke-linecap="round"/>
<path d="M259.612 176.504L269.544 181.938M279.476 187.372L269.544 181.938M269.544 181.938L266.778 173.243M269.544 181.938L260.938 184.411" stroke="white" stroke-width="5" stroke-linecap="round"/>
<path d="M299.188 198.158L289.256 192.723M279.324 187.289L289.256 192.723M289.256 192.723L292.023 201.419M289.256 192.723L297.862 190.251" stroke="white" stroke-width="5" stroke-linecap="round"/>
<path d="M107.208 185.385V196.906M107.208 208.428V196.906M107.208 196.906L113.398 190.31M107.208 196.906L101.017 190.31" stroke="white" stroke-width="5" stroke-linecap="round"/>
<path d="M107.208 231.296V219.774M107.208 208.252V219.774M107.208 219.774L101.017 226.371M107.208 219.774L113.398 226.371" stroke="white" stroke-width="5" stroke-linecap="round"/>
<path d="M126.436 196.505L116.785 202.445M107.134 208.386L116.785 202.445M116.785 202.445L125.502 204.471M116.785 202.445L119.119 193.618" stroke="white" stroke-width="5" stroke-linecap="round"/>
<path d="M87.9791 220.175L97.6302 214.235M107.281 208.295L97.6302 214.235M97.6302 214.235L88.9131 212.21M97.6302 214.235L95.2964 223.062" stroke="white" stroke-width="5" stroke-linecap="round"/>
<path d="M87.4192 197.514L97.3512 202.948M107.283 208.382L97.3512 202.948M97.3512 202.948L94.5847 194.252M97.3512 202.948L88.7453 205.421" stroke="white" stroke-width="5" stroke-linecap="round"/>
<path d="M126.996 219.167L117.064 213.733M107.132 208.299L117.064 213.733M117.064 213.733L119.83 222.428M117.064 213.733L125.67 211.26" stroke="white" stroke-width="5" stroke-linecap="round"/>
<defs>
<filter id="filter0_d_33_538" x="0" y="0" width="335" height="158" filterUnits="userSpaceOnUse" color-interpolation-filters="sRGB">
<feFlood flood-opacity="0" result="BackgroundImageFix"/>
<feColorMatrix in="SourceAlpha" type="matrix" values="0 0 0 0 0 0 0 0 0 0 0 0 0 0 0 0 0 0 127 0" result="hardAlpha"/>
<feOffset dy="4"/>
<feGaussianBlur stdDeviation="2"/>
<feComposite in2="hardAlpha" operator="out"/>
<feColorMatrix type="matrix" values="0 0 0 0 0 0 0 0 0 0 0 0 0 0 0 0 0 0 0.25 0"/>
<feBlend mode="normal" in2="BackgroundImageFix" result="effect1_dropShadow_33_538"/>
<feBlend mode="normal" in="SourceGraphic" in2="effect1_dropShadow_33_538" result="shape"/>
</filter>
<filter id="filter1_d_33_538" x="24.3411" y="160.678" width="281.318" height="82.6436" filterUnits="userSpaceOnUse" color-interpolation-filters="sRGB">
<feFlood flood-opacity="0" result="BackgroundImageFix"/>
<feColorMatrix in="SourceAlpha" type="matrix" values="0 0 0 0 0 0 0 0 0 0 0 0 0 0 0 0 0 0 127 0" result="hardAlpha"/>
<feOffset dy="4"/>
<feGaussianBlur stdDeviation="2"/>
<feComposite in2="hardAlpha" operator="out"/>
<feColorMatrix type="matrix" values="0 0 0 0 0 0 0 0 0 0 0 0 0 0 0 0 0 0 0.07 0"/>
<feBlend mode="normal" in2="BackgroundImageFix" result="effect1_dropShadow_33_538"/>
<feBlend mode="normal" in="SourceGraphic" in2="effect1_dropShadow_33_538" result="shape"/>
</filter>
<filter id="filter2_f_33_538" x="24.3411" y="158.512" width="52.5171" height="58.9113" filterUnits="userSpaceOnUse" color-interpolation-filters="sRGB">
<feFlood flood-opacity="0" result="BackgroundImageFix"/>
<feBlend mode="normal" in="SourceGraphic" in2="BackgroundImageFix" result="shape"/>
<feGaussianBlur stdDeviation="2" result="effect1_foregroundBlur_33_538"/>
</filter>
<filter id="filter3_f_33_538" x="138.638" y="156.678" width="52.5171" height="58.9113" filterUnits="userSpaceOnUse" color-interpolation-filters="sRGB">
<feFlood flood-opacity="0" result="BackgroundImageFix"/>
<feBlend mode="normal" in="SourceGraphic" in2="BackgroundImageFix" result="shape"/>
<feGaussianBlur stdDeviation="2" result="effect1_foregroundBlur_33_538"/>
</filter>
<filter id="filter4_f_33_538" x="196.287" y="180.41" width="52.517" height="58.9113" filterUnits="userSpaceOnUse" color-interpolation-filters="sRGB">
<feFlood flood-opacity="0" result="BackgroundImageFix"/>
<feBlend mode="normal" in="SourceGraphic" in2="BackgroundImageFix" result="shape"/>
<feGaussianBlur stdDeviation="2" result="effect1_foregroundBlur_33_538"/>
</filter>
<filter id="filter5_f_33_538" x="253.142" y="157.875" width="52.517" height="58.9113" filterUnits="userSpaceOnUse" color-interpolation-filters="sRGB">
<feFlood flood-opacity="0" result="BackgroundImageFix"/>
<feBlend mode="normal" in="SourceGraphic" in2="BackgroundImageFix" result="shape"/>
<feGaussianBlur stdDeviation="2" result="effect1_foregroundBlur_33_538"/>
</filter>
<filter id="filter6_f_33_538" x="80.9489" y="178.885" width="52.5171" height="58.9113" filterUnits="userSpaceOnUse" color-interpolation-filters="sRGB">
<feFlood flood-opacity="0" result="BackgroundImageFix"/>
<feBlend mode="normal" in="SourceGraphic" in2="BackgroundImageFix" result="shape"/>
<feGaussianBlur stdDeviation="2" result="effect1_foregroundBlur_33_538"/>
</filter>
<linearGradient id="paint0_linear_33_538" x1="167.5" y1="0" x2="167.5" y2="150" gradientUnits="userSpaceOnUse">
<stop offset="0.557692" stop-color="#E3F3FB"/>
<stop offset="1" stop-color="#B2C7D1"/>
</linearGradient>
</defs>
</svg>
