<svg width="335" height="262" viewBox="0 0 335 262" fill="none" xmlns="http://www.w3.org/2000/svg">
<g filter="url(#filter0_df_33_575)">
<path d="M145.109 218.183L171.594 171.644C172.011 170.912 173.128 171.207 173.128 172.049V199.768C173.128 200.873 174.023 201.768 175.128 201.768H189.152C189.782 201.768 190.177 202.448 189.865 202.995L163.38 249.534C162.963 250.266 161.846 249.97 161.846 249.128V221.4C161.846 220.295 160.951 219.409 159.846 219.409H145.822C145.192 219.409 144.797 218.73 145.109 218.183Z" fill="#FFD768"/>
<path d="M145.109 218.183L171.594 171.644C172.011 170.912 173.128 171.207 173.128 172.049V199.768C173.128 200.873 174.023 201.768 175.128 201.768H189.152C189.782 201.768 190.177 202.448 189.865 202.995L163.38 249.534C162.963 250.266 161.846 249.97 161.846 249.128V221.4C161.846 220.295 160.951 219.409 159.846 219.409H145.822C145.192 219.409 144.797 218.73 145.109 218.183Z" stroke="#FFD768" stroke-width="8"/>
</g>
<path d="M145.135 217.955L171.62 171.416C172.037 170.684 173.154 170.98 173.154 171.822V199.541C173.154 200.645 174.049 201.541 175.154 201.541H189.178C189.808 201.541 190.203 202.22 189.891 202.767L163.406 249.306C162.989 250.038 161.872 249.743 161.872 248.9V221.172C161.872 220.067 160.977 219.181 159.872 219.181H145.848C145.218 219.181 144.823 218.502 145.135 217.955Z" fill="#FFD768" stroke="#FFD768" stroke-width="8"/>
<g filter="url(#filter1_d_33_575)">
<path d="M69 197.156C69 204.25 62.732 210 55 210C47.268 210 41 204.25 41 197.156C41 190.062 56.12 168 56.12 168C56.12 168 69 190.062 69 197.156Z" fill="url(#paint0_linear_33_575)"/>
</g>
<g filter="url(#filter2_d_33_575)">
<path d="M123 218.156C123 225.25 116.732 231 109 231C101.268 231 95 225.25 95 218.156C95 211.062 110.12 189 110.12 189C110.12 189 123 211.062 123 218.156Z" fill="url(#paint1_linear_33_575)"/>
</g>
<g filter="url(#filter3_d_33_575)">
<path d="M235 218.156C235 225.25 228.732 231 221 231C213.268 231 207 225.25 207 218.156C207 211.062 222.12 189 222.12 189C222.12 189 235 211.062 235 218.156Z" fill="url(#paint2_linear_33_575)"/>
</g>
<g filter="url(#filter4_d_33_575)">
<path d="M293 197.156C293 204.25 286.732 210 279 210C271.268 210 265 204.25 265 197.156C265 190.062 280.12 168 280.12 168C280.12 168 293 190.062 293 197.156Z" fill="url(#paint3_linear_33_575)"/>
</g>
<g filter="url(#filter5_d_33_575)">
<path d="M143 0C167.765 0 189.138 13.5838 199.071 33.2207C202.259 32.4235 205.583 32 209 32C227.384 32 243.071 44.2091 249.221 61.3818C253.036 59.8441 257.175 59 261.5 59C278.174 59 292.085 71.5143 295.3 88.1494C296.353 88.0513 297.42 88 298.5 88C316.449 88 331 101.879 331 119C331 136.121 316.449 150 298.5 150C297.659 150 296.825 149.969 296 149.909V150H41V149.987C40.6678 149.995 40.3344 150 40 150C20.1177 150 4 136.121 4 119C4 104.399 15.7225 92.158 31.5049 88.8701C34.9652 64.6331 55.8064 46 81 46C81.4431 46 81.8849 46.0061 82.3252 46.0176C88.2267 19.7344 113.15 0 143 0Z" fill="url(#paint4_linear_33_575)"/>
</g>
<defs>
<filter id="filter0_df_33_575" x="136.994" y="163.221" width="60.9857" height="98.7357" filterUnits="userSpaceOnUse" color-interpolation-filters="sRGB">
<feFlood flood-opacity="0" result="BackgroundImageFix"/>
<feColorMatrix in="SourceAlpha" type="matrix" values="0 0 0 0 0 0 0 0 0 0 0 0 0 0 0 0 0 0 127 0" result="hardAlpha"/>
<feOffset dy="4"/>
<feGaussianBlur stdDeviation="2"/>
<feComposite in2="hardAlpha" operator="out"/>
<feColorMatrix type="matrix" values="0 0 0 0 0 0 0 0 0 0 0 0 0 0 0 0 0 0 0.25 0"/>
<feBlend mode="normal" in2="BackgroundImageFix" result="effect1_dropShadow_33_575"/>
<feBlend mode="normal" in="SourceGraphic" in2="effect1_dropShadow_33_575" result="shape"/>
<feGaussianBlur stdDeviation="2" result="effect2_foregroundBlur_33_575"/>
</filter>
<filter id="filter1_d_33_575" x="37" y="168" width="36" height="50" filterUnits="userSpaceOnUse" color-interpolation-filters="sRGB">
<feFlood flood-opacity="0" result="BackgroundImageFix"/>
<feColorMatrix in="SourceAlpha" type="matrix" values="0 0 0 0 0 0 0 0 0 0 0 0 0 0 0 0 0 0 127 0" result="hardAlpha"/>
<feOffset dy="4"/>
<feGaussianBlur stdDeviation="2"/>
<feComposite in2="hardAlpha" operator="out"/>
<feColorMatrix type="matrix" values="0 0 0 0 0 0 0 0 0 0 0 0 0 0 0 0 0 0 0.25 0"/>
<feBlend mode="normal" in2="BackgroundImageFix" result="effect1_dropShadow_33_575"/>
<feBlend mode="normal" in="SourceGraphic" in2="effect1_dropShadow_33_575" result="shape"/>
</filter>
<filter id="filter2_d_33_575" x="91" y="189" width="36" height="50" filterUnits="userSpaceOnUse" color-interpolation-filters="sRGB">
<feFlood flood-opacity="0" result="BackgroundImageFix"/>
<feColorMatrix in="SourceAlpha" type="matrix" values="0 0 0 0 0 0 0 0 0 0 0 0 0 0 0 0 0 0 127 0" result="hardAlpha"/>
<feOffset dy="4"/>
<feGaussianBlur stdDeviation="2"/>
<feComposite in2="hardAlpha" operator="out"/>
<feColorMatrix type="matrix" values="0 0 0 0 0 0 0 0 0 0 0 0 0 0 0 0 0 0 0.25 0"/>
<feBlend mode="normal" in2="BackgroundImageFix" result="effect1_dropShadow_33_575"/>
<feBlend mode="normal" in="SourceGraphic" in2="effect1_dropShadow_33_575" result="shape"/>
</filter>
<filter id="filter3_d_33_575" x="203" y="189" width="36" height="50" filterUnits="userSpaceOnUse" color-interpolation-filters="sRGB">
<feFlood flood-opacity="0" result="BackgroundImageFix"/>
<feColorMatrix in="SourceAlpha" type="matrix" values="0 0 0 0 0 0 0 0 0 0 0 0 0 0 0 0 0 0 127 0" result="hardAlpha"/>
<feOffset dy="4"/>
<feGaussianBlur stdDeviation="2"/>
<feComposite in2="hardAlpha" operator="out"/>
<feColorMatrix type="matrix" values="0 0 0 0 0 0 0 0 0 0 0 0 0 0 0 0 0 0 0.25 0"/>
<feBlend mode="normal" in2="BackgroundImageFix" result="effect1_dropShadow_33_575"/>
<feBlend mode="normal" in="SourceGraphic" in2="effect1_dropShadow_33_575" result="shape"/>
</filter>
<filter id="filter4_d_33_575" x="261" y="168" width="36" height="50" filterUnits="userSpaceOnUse" color-interpolation-filters="sRGB">
<feFlood flood-opacity="0" result="BackgroundImageFix"/>
<feColorMatrix in="SourceAlpha" type="matrix" values="0 0 0 0 0 0 0 0 0 0 0 0 0 0 0 0 0 0 127 0" result="hardAlpha"/>
<feOffset dy="4"/>
<feGaussianBlur stdDeviation="2"/>
<feComposite in2="hardAlpha" operator="out"/>
<feColorMatrix type="matrix" values="0 0 0 0 0 0 0 0 0 0 0 0 0 0 0 0 0 0 0.25 0"/>
<feBlend mode="normal" in2="BackgroundImageFix" result="effect1_dropShadow_33_575"/>
<feBlend mode="normal" in="SourceGraphic" in2="effect1_dropShadow_33_575" result="shape"/>
</filter>
<filter id="filter5_d_33_575" x="0" y="0" width="335" height="158" filterUnits="userSpaceOnUse" color-interpolation-filters="sRGB">
<feFlood flood-opacity="0" result="BackgroundImageFix"/>
<feColorMatrix in="SourceAlpha" type="matrix" values="0 0 0 0 0 0 0 0 0 0 0 0 0 0 0 0 0 0 127 0" result="hardAlpha"/>
<feOffset dy="4"/>
<feGaussianBlur stdDeviation="2"/>
<feComposite in2="hardAlpha" operator="out"/>
<feColorMatrix type="matrix" values="0 0 0 0 0 0 0 0 0 0 0 0 0 0 0 0 0 0 0.25 0"/>
<feBlend mode="normal" in2="BackgroundImageFix" result="effect1_dropShadow_33_575"/>
<feBlend mode="normal" in="SourceGraphic" in2="effect1_dropShadow_33_575" result="shape"/>
</filter>
<linearGradient id="paint0_linear_33_575" x1="113.642" y1="168" x2="113.642" y2="210" gradientUnits="userSpaceOnUse">
<stop offset="0.480769" stop-color="#8BC8E5"/>
<stop offset="1" stop-color="#508BA9"/>
</linearGradient>
<linearGradient id="paint1_linear_33_575" x1="167.642" y1="189" x2="167.642" y2="231" gradientUnits="userSpaceOnUse">
<stop offset="0.480769" stop-color="#8BC8E5"/>
<stop offset="1" stop-color="#508BA9"/>
</linearGradient>
<linearGradient id="paint2_linear_33_575" x1="279.642" y1="189" x2="279.642" y2="231" gradientUnits="userSpaceOnUse">
<stop offset="0.480769" stop-color="#8BC8E5"/>
<stop offset="1" stop-color="#508BA9"/>
</linearGradient>
<linearGradient id="paint3_linear_33_575" x1="337.642" y1="168" x2="337.642" y2="210" gradientUnits="userSpaceOnUse">
<stop offset="0.480769" stop-color="#8BC8E5"/>
<stop offset="1" stop-color="#508BA9"/>
</linearGradient>
<linearGradient id="paint4_linear_33_575" x1="167.5" y1="0" x2="167.5" y2="150" gradientUnits="userSpaceOnUse">
<stop stop-color="#B9CCD5"/>
<stop offset="1" stop-color="#647279"/>
</linearGradient>
</defs>
</svg>
